<svg xmlns="http://www.w3.org/2000/svg" width="1920" height="431" fill="none" viewBox="0 0 1920 431">
  <path fill="#fff" d="M15.156 430.844c-38.597 0-66.465-9.61-83.601-28.828-16.977-19.219-25.465-49.809-25.465-91.77v-41.32h83.601v52.851c0 9.77 1.442 17.457 4.325 23.063 3.043 5.445 8.248 8.168 15.615 8.168 7.687 0 12.973-2.242 15.855-6.727 3.043-4.484 4.565-11.851 4.565-22.101 0-12.973-1.281-23.784-3.844-32.432-2.563-8.809-7.047-17.137-13.453-24.984-6.246-8.008-14.975-17.297-26.186-27.868l-37.957-36.035c-28.347-26.746-42.521-57.336-42.521-91.769 0-36.035 8.328-63.502 24.984-82.4C-52.109 9.792-27.846.343 3.865.343c38.758 0 66.225 10.33 82.4 30.99 16.337 20.66 24.505 52.05 24.505 94.172H24.766V96.437c0-5.765-1.682-10.25-5.045-13.453-3.203-3.203-7.608-4.804-13.213-4.804-6.727 0-11.692 1.922-14.895 5.765-3.043 3.684-4.564 8.489-4.564 14.414 0 5.926 1.601 12.332 4.805 19.219 3.203 6.887 9.529 14.815 18.978 23.783L59.6 188.207c9.77 9.289 18.738 19.139 26.906 29.549 8.168 10.25 14.734 22.262 19.699 36.035 4.965 13.613 7.447 30.27 7.447 49.969 0 39.719-7.367 70.869-22.101 93.451-14.574 22.422-40.04 33.633-76.395 33.633Zm224.619 0c-35.234 0-61.179-9.85-77.836-29.549-16.656-19.859-24.984-49.008-24.984-87.445V4.187h82.16v306.299c0 7.047.401 13.854 1.201 20.42.801 6.406 2.643 11.692 5.526 15.856s7.527 6.246 13.933 6.246c6.567 0 11.291-2.002 14.174-6.006 2.883-4.164 4.645-9.529 5.285-16.096.801-6.566 1.202-13.373 1.202-20.42V4.188h82.16V313.85c0 38.437-8.328 67.586-24.985 87.445-16.656 19.699-42.601 29.549-77.836 29.549ZM375.027 427V4.187h128.766l35.555 257.772L574.662 4.187h129.967V427h-77.356V122.383L578.746 427h-75.914l-51.41-304.617V427h-76.395Zm367.078 0V4.187h128.766l35.555 257.772L941.74 4.187h129.97V427h-77.358V122.383L945.824 427H869.91L818.5 122.383V427h-76.395Zm363.235 0V4.187h81.68V427h-81.68Zm151.59 0V85.387h-50.21v-81.2h184.98v81.2h-50.21V427h-84.56Zm288.76-270.023-24.02-152.79h84.56l-18.26 152.79h-42.28ZM1631.93 427v-20.18c0-20.98 3.21-39.799 9.61-56.455 6.57-16.816 14.98-32.351 25.23-46.605a740.35 740.35 0 0 1 32.43-42.281 703.452 703.452 0 0 0 31.47-41.321c10.09-14.254 18.26-29.629 24.5-46.125 6.41-16.656 9.61-35.314 9.61-55.974 0-9.93-1.52-18.418-4.56-25.465-2.88-7.207-8.97-10.81-18.26-10.81-14.09 0-21.14 12.572-21.14 37.716v51.65h-88.89c-.16-3.683-.4-7.847-.72-12.492-.16-4.644-.24-9.129-.24-13.453 0-30.43 3.21-56.215 9.61-77.355 6.41-21.301 17.7-37.477 33.88-48.528 16.33-11.21 39.23-16.816 68.7-16.816 35.08 0 62.3 9.85 81.68 29.549 19.54 19.699 29.31 47.806 29.31 84.322 0 24.824-3.2 46.605-9.61 65.344-6.41 18.578-14.89 35.554-25.46 50.929-10.57 15.215-22.19 30.43-34.84 45.645a863.391 863.391 0 0 0-26.18 32.912c-8.33 11.211-15.7 23.223-22.1 36.035h115.31V427h-219.34Zm243.12 0v-20.18c0-20.98 3.2-39.799 9.61-56.455 6.57-16.816 14.97-32.351 25.22-46.605a740.534 740.534 0 0 1 32.44-42.281 703.452 703.452 0 0 0 31.47-41.321c10.09-14.254 18.25-29.629 24.5-46.125 6.41-16.656 9.61-35.314 9.61-55.974 0-9.93-1.52-18.418-4.56-25.465-2.89-7.207-8.97-10.81-18.26-10.81-14.1 0-21.14 12.572-21.14 37.716v51.65h-88.89c-.16-3.683-.4-7.847-.72-12.492-.16-4.644-.24-9.129-.24-13.453 0-30.43 3.2-56.215 9.61-77.355 6.41-21.301 17.7-37.477 33.87-48.528 16.34-11.21 39.24-16.816 68.71-16.816 35.07 0 62.3 9.85 81.68 29.549 19.54 19.699 29.31 47.806 29.31 84.322 0 24.824-3.21 46.605-9.61 65.344-6.41 18.578-14.9 35.554-25.47 50.929-10.57 15.215-22.18 30.43-34.83 45.645a873.637 873.637 0 0 0-26.19 32.912c-8.32 11.211-15.69 23.223-22.1 36.035h115.31V427h-219.33ZM-104 513.004h2207.27v24.504H-104v-24.504Z" opacity=".02"/>
</svg>
