<svg xmlns="http://www.w3.org/2000/svg" width="1206" height="343" fill="none" viewBox="0 0 1206 343">
  <path fill="#fff" d="M351.211 318v-1.641c0-1.705.26-3.235.781-4.589a17.147 17.147 0 0 1 2.051-3.79 60.148 60.148 0 0 1 2.637-3.437 57.544 57.544 0 0 0 2.558-3.359 16.64 16.64 0 0 0 1.992-3.75c.521-1.355.782-2.872.782-4.551 0-.807-.124-1.498-.371-2.071-.235-.585-.73-.878-1.485-.878-1.146 0-1.718 1.022-1.718 3.066v4.199h-7.227a40.633 40.633 0 0 0-.059-1.015 31.842 31.842 0 0 1-.019-1.094c0-2.474.26-4.57.781-6.289.521-1.732 1.439-3.047 2.754-3.946 1.328-.911 3.19-1.367 5.586-1.367 2.851 0 5.065.801 6.641 2.403 1.588 1.601 2.382 3.886 2.382 6.855 0 2.018-.26 3.789-.781 5.313a17.136 17.136 0 0 1-2.07 4.14 54.4 54.4 0 0 1-2.832 3.711 71.139 71.139 0 0 0-2.129 2.676 19.583 19.583 0 0 0-1.797 2.93h9.375V318h-17.832Zm19.727-9.941v-4.532h10.078v4.532h-10.078Zm21.835 9.961v-5.45h-10.195v-5.371l6.504-23.594h10.703v23.223h1.836v5.742h-1.836v5.45h-7.012Zm-4.062-11.192h4.062v-17.324l-4.062 17.324ZM412.891 318v-34.375h9.453c2.474 0 4.336.69 5.586 2.07 1.25 1.367 1.875 3.373 1.875 6.016v16.094c0 3.255-.573 5.768-1.719 7.539-1.133 1.771-3.125 2.656-5.977 2.656h-9.218Zm6.914-6.074h1.191c1.263 0 1.895-.612 1.895-1.836v-17.735c0-1.145-.157-1.881-.469-2.207-.3-.338-.918-.507-1.856-.507h-.761v22.285ZM432.617 318v-34.375h13.75v6.641h-6.758v6.699h6.485v6.465h-6.485v7.871h7.207V318h-14.199Zm24.492.312c-2.487 0-4.492-.774-6.015-2.324-1.511-1.549-2.266-3.717-2.266-6.504v-15.859c0-3.333.658-5.885 1.973-7.656 1.328-1.771 3.483-2.657 6.465-2.657 1.627 0 3.073.3 4.336.899a6.853 6.853 0 0 1 3.007 2.695c.73 1.185 1.094 2.683 1.094 4.492v5.938h-6.836v-5.078c0-1.029-.13-1.719-.39-2.07-.261-.365-.665-.547-1.211-.547-.638 0-1.068.234-1.289.703-.222.455-.332 1.067-.332 1.836v17.207c0 .95.136 1.621.41 2.011.286.391.69.586 1.211.586.586 0 .996-.241 1.23-.722.247-.482.371-1.107.371-1.875v-6.192h6.914v6.504c0 3.021-.761 5.215-2.285 6.582-1.523 1.354-3.652 2.031-6.387 2.031Zm10.977-.312v-34.375h13.75v6.641h-6.758v6.699h6.484v6.465h-6.484v7.871h7.207V318h-14.199Zm16.484 0v-34.375h10.469l2.891 20.957 2.871-20.957h10.566V318h-6.289v-24.766L501.133 318h-6.172l-4.18-24.766V318h-6.211Zm29.844 0v-34.375h9.316c2.5 0 4.317.612 5.45 1.836 1.146 1.211 1.718 3.216 1.718 6.016v1.503c0 1.615-.293 2.924-.878 3.926-.573 1.003-1.452 1.66-2.637 1.973 1.549.391 2.584 1.309 3.105 2.754.534 1.432.801 3.183.801 5.254 0 2.226-.208 4.173-.625 5.84-.417 1.666-1.172 2.962-2.266 3.886-1.093.925-2.649 1.387-4.668 1.387h-9.316Zm6.719-21.426h1.406c.638 0 1.048-.247 1.231-.742.182-.495.273-1.087.273-1.777v-3.457c0-1.107-.488-1.66-1.465-1.66h-1.445v7.636Zm.683 15.371c1.784 0 2.676-.846 2.676-2.539v-4.297c0-.976-.15-1.744-.449-2.304-.286-.573-.833-.86-1.641-.86h-1.269v9.961c.286.026.514.039.683.039ZM533.555 318v-34.375h13.75v6.641h-6.758v6.699h6.484v6.465h-6.484v7.871h7.207V318h-14.199Zm16.484 0v-34.375h10.547c1.758 0 3.086.404 3.984 1.211.899.794 1.498 1.914 1.797 3.359.313 1.433.469 3.119.469 5.059 0 1.875-.241 3.372-.723 4.492-.468 1.12-1.36 1.895-2.675 2.324 1.08.222 1.835.762 2.265 1.621.443.847.664 1.947.664 3.301V318h-6.777v-13.457c0-1.003-.208-1.621-.625-1.855-.404-.248-1.061-.372-1.973-.372V318h-6.953Zm6.992-21.641h1.66c.951 0 1.426-1.035 1.426-3.105 0-1.341-.104-2.22-.312-2.637-.209-.416-.599-.625-1.172-.625h-1.602v6.367Zm12.813 26.231 1.289-4.61h-2.481v-5.82h7.305v5.645l-1.992 4.785h-4.121Zm17.773-4.59v-1.641c0-1.705.261-3.235.781-4.589a17.147 17.147 0 0 1 2.051-3.79 60.61 60.61 0 0 1 2.637-3.437 58.008 58.008 0 0 0 2.559-3.359 16.72 16.72 0 0 0 1.992-3.75c.521-1.355.781-2.872.781-4.551 0-.807-.124-1.498-.371-2.071-.235-.585-.729-.878-1.485-.878-1.145 0-1.718 1.022-1.718 3.066v4.199h-7.227a40.261 40.261 0 0 0-.058-1.015c-.013-.378-.02-.743-.02-1.094 0-2.474.26-4.57.781-6.289.521-1.732 1.439-3.047 2.754-3.946 1.328-.911 3.19-1.367 5.586-1.367 2.852 0 5.065.801 6.641 2.403 1.588 1.601 2.383 3.886 2.383 6.855 0 2.018-.261 3.789-.782 5.313a17.1 17.1 0 0 1-2.07 4.14A53.76 53.76 0 0 1 600 305.91a71.139 71.139 0 0 0-2.129 2.676 19.583 19.583 0 0 0-1.797 2.93h9.375V318h-17.832Zm28.438.312c-2.904 0-5.15-.813-6.739-2.441-1.575-1.628-2.363-3.971-2.363-7.031v-15.508c0-3.229.749-5.703 2.246-7.422 1.511-1.732 3.796-2.598 6.856-2.598 3.073 0 5.358.866 6.855 2.598 1.498 1.719 2.246 4.193 2.246 7.422v15.508c0 3.06-.788 5.403-2.363 7.031-1.576 1.628-3.822 2.441-6.738 2.441Zm0-6.328c.534 0 .95-.241 1.25-.722a3.012 3.012 0 0 0 .449-1.621v-16.973c0-.807-.091-1.51-.274-2.109-.169-.612-.644-.918-1.425-.918-.782 0-1.263.306-1.446.918-.169.599-.254 1.302-.254 2.109v16.973c0 .599.15 1.139.45 1.621.312.481.729.722 1.25.722ZM627.148 318v-1.641c0-1.705.261-3.235.782-4.589a17.143 17.143 0 0 1 2.05-3.79 61.079 61.079 0 0 1 2.637-3.437 57.562 57.562 0 0 0 2.559-3.359 16.72 16.72 0 0 0 1.992-3.75c.521-1.355.781-2.872.781-4.551 0-.807-.123-1.498-.371-2.071-.234-.585-.729-.878-1.484-.878-1.146 0-1.719 1.022-1.719 3.066v4.199h-7.227a40.261 40.261 0 0 0-.058-1.015c-.013-.378-.02-.743-.02-1.094 0-2.474.261-4.57.782-6.289.52-1.732 1.438-3.047 2.753-3.946 1.329-.911 3.191-1.367 5.586-1.367 2.852 0 5.066.801 6.641 2.403 1.589 1.601 2.383 3.886 2.383 6.855 0 2.018-.261 3.789-.781 5.313a17.103 17.103 0 0 1-2.071 4.14 53.76 53.76 0 0 1-2.832 3.711 71.139 71.139 0 0 0-2.129 2.676 19.583 19.583 0 0 0-1.797 2.93h9.375V318h-17.832Zm19.766 0v-1.641c0-1.705.26-3.235.781-4.589a17.147 17.147 0 0 1 2.051-3.79 60.148 60.148 0 0 1 2.637-3.437 57.544 57.544 0 0 0 2.558-3.359 16.683 16.683 0 0 0 1.993-3.75c.52-1.355.781-2.872.781-4.551 0-.807-.124-1.498-.371-2.071-.235-.585-.729-.878-1.485-.878-1.145 0-1.718 1.022-1.718 3.066v4.199h-7.227a36.341 36.341 0 0 0-.059-1.015 31.842 31.842 0 0 1-.019-1.094c0-2.474.26-4.57.781-6.289.521-1.732 1.439-3.047 2.754-3.946 1.328-.911 3.19-1.367 5.586-1.367 2.852 0 5.065.801 6.641 2.403 1.588 1.601 2.382 3.886 2.382 6.855 0 2.018-.26 3.789-.781 5.313a17.136 17.136 0 0 1-2.07 4.14 53.76 53.76 0 0 1-2.832 3.711 71.139 71.139 0 0 0-2.129 2.676 19.583 19.583 0 0 0-1.797 2.93h9.375V318h-17.832Zm123.609 0v-34.375h9.454c2.474 0 4.335.69 5.585 2.07 1.25 1.367 1.876 3.373 1.876 6.016v16.094c0 3.255-.573 5.768-1.719 7.539-1.133 1.771-3.125 2.656-5.977 2.656h-9.219Zm6.915-6.074h1.191c1.263 0 1.894-.612 1.894-1.836v-17.735c0-1.145-.156-1.881-.468-2.207-.3-.338-.918-.507-1.856-.507h-.761v22.285Zm21.015 6.386c-2.747 0-4.85-.826-6.308-2.48-1.446-1.667-2.168-4.069-2.168-7.207v-16.328c0-2.943.716-5.176 2.148-6.699 1.445-1.524 3.555-2.286 6.328-2.286 2.774 0 4.876.762 6.309 2.286 1.445 1.523 2.168 3.756 2.168 6.699v16.328c0 3.138-.729 5.54-2.188 7.207-1.445 1.654-3.541 2.48-6.289 2.48Zm.059-6.328c1.041 0 1.562-1.009 1.562-3.027V292.18c0-1.693-.508-2.539-1.523-2.539-1.146 0-1.719.866-1.719 2.597v16.758c0 1.068.13 1.836.391 2.305.26.456.69.683 1.289.683ZM809.703 318v-34.375h10.469l2.89 20.957 2.872-20.957H836.5V318h-6.289v-24.766L826.266 318h-6.172l-4.18-24.766V318h-6.211Zm39.219 0v-34.375h10.469l2.89 20.957 2.871-20.957h10.567V318h-6.289v-24.766L865.484 318h-6.172l-4.179-24.766V318h-6.211Zm29.844 0v-34.375h6.875v28.516h7.07V318h-13.945Zm14.961 0 3.32-34.375h11.66L911.969 318h-6.504l-.488-5.547h-4.141l-.43 5.547h-6.679Zm7.597-11.035h3.125l-1.504-17.481h-.312l-1.309 17.481ZM914.078 318v-34.375h9.453c2.474 0 4.336.69 5.586 2.07 1.25 1.367 1.875 3.373 1.875 6.016v16.094c0 3.255-.573 5.768-1.719 7.539-1.132 1.771-3.125 2.656-5.976 2.656h-9.219Zm6.914-6.074h1.192c1.263 0 1.894-.612 1.894-1.836v-17.735c0-1.145-.156-1.881-.469-2.207-.299-.338-.918-.507-1.855-.507h-.762v22.285Zm12.5 6.074v-34.375h6.641V318h-6.641Zm9.375 0v-34.375h6.836v12.285h3.242v-12.285h6.836V318h-6.836v-15.586h-3.242V318h-6.836Zm37.5.312c-3.138 0-5.403-.781-6.797-2.343-1.38-1.563-2.07-4.05-2.07-7.461v-3.36h6.797v4.297c0 .795.117 1.42.351 1.875.248.443.671.664 1.27.664.625 0 1.055-.182 1.289-.546.247-.365.371-.964.371-1.797 0-1.055-.104-1.934-.312-2.637a5.746 5.746 0 0 0-1.094-2.031c-.508-.651-1.218-1.407-2.129-2.266l-3.086-2.93c-2.305-2.174-3.457-4.661-3.457-7.461 0-2.929.677-5.162 2.031-6.699 1.367-1.536 3.34-2.305 5.918-2.305 3.151 0 5.384.84 6.699 2.52 1.329 1.68 1.993 4.232 1.993 7.656h-6.993v-2.363c0-.469-.136-.833-.41-1.094-.26-.26-.618-.39-1.074-.39-.547 0-.95.156-1.211.468-.247.3-.371.69-.371 1.172s.13 1.003.391 1.563c.26.56.774 1.204 1.543 1.933l3.964 3.809a22.284 22.284 0 0 1 2.188 2.402c.664.834 1.198 1.81 1.602 2.93.403 1.107.605 2.461.605 4.062 0 3.23-.599 5.762-1.797 7.598-1.185 1.823-3.255 2.734-6.211 2.734Zm9.375-.312 3.32-34.375h11.658l3.26 34.375h-6.5l-.49-5.547h-4.138l-.43 5.547h-6.68Zm7.598-11.035h3.12l-1.499-17.481h-.313l-1.308 17.481ZM1010.09 318v-34.375h10.55c1.76 0 3.09.404 3.98 1.211.9.794 1.5 1.914 1.8 3.359.31 1.433.47 3.119.47 5.059 0 1.875-.24 3.372-.72 4.492-.47 1.12-1.36 1.895-2.68 2.324 1.08.222 1.84.762 2.27 1.621.44.847.66 1.947.66 3.301V318h-6.78v-13.457c0-1.003-.2-1.621-.62-1.855-.4-.248-1.06-.372-1.97-.372V318h-6.96Zm7-21.641h1.66c.95 0 1.42-1.035 1.42-3.105 0-1.341-.1-2.22-.31-2.637-.21-.416-.6-.625-1.17-.625h-1.6v6.367ZM1028.22 318l3.32-34.375h11.66l3.26 34.375h-6.5l-.49-5.547h-4.14l-.43 5.547h-6.68Zm7.6-11.035h3.12l-1.5-17.481h-.32l-1.3 17.481Zm20.37 11.347c-1.55 0-2.96-.299-4.24-.898a7.193 7.193 0 0 1-3.05-2.656c-.74-1.185-1.11-2.637-1.11-4.356v-8.613h6.8v8.203c0 .599.11 1.081.35 1.446.24.364.64.546 1.17.546 1.03 0 1.54-.631 1.54-1.894v-26.465h6.94v25.781c0 1.823-.36 3.405-1.08 4.746-.71 1.328-1.7 2.357-2.97 3.086-1.26.716-2.71 1.074-4.35 1.074Zm11.05-.312v-34.375h13.75v6.641h-6.76v6.699h6.49v6.465h-6.49v7.871h7.21V318h-14.2Zm19.65 0-4.24-34.395h6.55l2.51 23.399 2.25-23.399h6.54L1096.27 318h-9.38Zm23.83.312c-2.75 0-4.85-.826-6.31-2.48-1.45-1.667-2.17-4.069-2.17-7.207v-16.328c0-2.943.72-5.176 2.15-6.699 1.45-1.524 3.56-2.286 6.33-2.286s4.88.762 6.31 2.286c1.44 1.523 2.17 3.756 2.17 6.699v16.328c0 3.138-.73 5.54-2.19 7.207-1.45 1.654-3.54 2.48-6.29 2.48Zm.06-6.328c1.04 0 1.56-1.009 1.56-3.027V292.18c0-1.693-.51-2.539-1.52-2.539-1.15 0-1.72.866-1.72 2.597v16.758c0 1.068.13 1.836.39 2.305.26.456.69.683 1.29.683Zm11.93 10.606 1.29-4.61h-2.48v-5.82h7.3v5.645l-1.99 4.785h-4.12Zm18.09-4.59v-34.375h9.31c2.5 0 4.32.612 5.45 1.836 1.15 1.211 1.72 3.216 1.72 6.016v1.503c0 1.615-.29 2.924-.88 3.926-.57 1.003-1.45 1.66-2.63 1.973 1.55.391 2.58 1.309 3.1 2.754.53 1.432.8 3.183.8 5.254 0 2.226-.21 4.173-.62 5.84-.42 1.666-1.17 2.962-2.27 3.886-1.09.925-2.65 1.387-4.67 1.387h-9.31Zm6.72-21.426h1.4c.64 0 1.05-.247 1.23-.742.18-.495.28-1.087.28-1.777v-3.457c0-1.107-.49-1.66-1.47-1.66h-1.44v7.636Zm.68 15.371c1.78 0 2.68-.846 2.68-2.539v-4.297c0-.976-.15-1.744-.45-2.304-.29-.573-.84-.86-1.64-.86h-1.27v9.961c.28.026.51.039.68.039Zm17.75 6.465c-2.13 0-3.81-.827-5.04-2.48-1.21-1.654-1.81-3.933-1.81-6.836 0-2.071.18-3.789.54-5.156.38-1.368.9-2.507 1.57-3.418.66-.912 1.42-1.706 2.28-2.383l-.15-.391a74.673 74.673 0 0 1-1.45-3.867c-.4-1.237-.6-2.507-.6-3.809 0-1.315.28-2.48.83-3.496a6.122 6.122 0 0 1 2.33-2.383c1-.586 2.15-.879 3.44-.879 1.27 0 2.43.28 3.47.84 1.06.547 1.9 1.374 2.52 2.481.63 1.107.94 2.506.94 4.199 0 1.836-.34 3.372-1.03 4.609-.68 1.237-1.7 2.429-3.07 3.575l1.87 4.726c.77-1.94 1.88-3.444 3.32-4.512l2.72 4.239c-1.51 1.211-2.77 3.183-3.79 5.918l3.44 8.613h-6.64l-.76-1.855c-.51.625-1.2 1.158-2.06 1.601-.84.443-1.8.664-2.87.664Zm1.47-28.945c0 .338.08.84.25 1.504.17.651.57 1.784 1.19 3.398.25-.26.47-.67.67-1.23.19-.56.29-1.328.29-2.305 0-1.003-.12-1.706-.37-2.109-.24-.404-.55-.606-.94-.606-.38 0-.66.143-.84.43-.17.273-.25.579-.25.918Zm-2.35 20.469c0 2.317.66 3.476 1.98 3.476.53 0 .96-.195 1.29-.586.32-.403.54-.82.66-1.25l-3.28-7.988c-.43.911-.65 2.506-.65 4.785v1.563Zm15.69 8.066v-34.375h6.83v12.285h3.25v-12.285h6.83V318h-6.83v-15.586h-3.25V318h-6.83Z"/>
  <path fill="#EFE200" d="m172.847 0 149.69 85.75v171.5L172.847 343l-149.69-85.75V85.75L172.847 0Zm545.381 272 25.312 14.5v29L718.228 330l-25.312-14.5v-29l25.312-14.5Z"/>
  <path fill="#131313" d="M123.41 221.84c-8.19 0-14.105-2.03-17.745-6.09-3.64-4.06-5.46-10.605-5.46-19.635v-8.82h17.745v11.235c0 4.48 1.435 6.72 4.305 6.72 1.61 0 2.73-.455 3.36-1.365.63-.98.945-2.59.945-4.83 0-2.94-.35-5.355-1.05-7.245-.7-1.96-1.61-3.57-2.73-4.83-1.05-1.33-2.975-3.36-5.775-6.09l-7.77-7.77c-6.02-5.88-9.03-12.39-9.03-19.53 0-7.7 1.75-13.545 5.25-17.535 3.57-4.06 8.75-6.09 15.54-6.09 8.12 0 13.965 2.17 17.535 6.51 3.57 4.27 5.355 10.99 5.355 20.16H125.51l-.105-6.195c0-1.19-.35-2.135-1.05-2.835-.63-.7-1.54-1.05-2.73-1.05-1.4 0-2.45.385-3.15 1.155-.7.77-1.05 1.82-1.05 3.15 0 2.94 1.68 5.985 5.04 9.135l10.5 10.08c2.45 2.38 4.48 4.655 6.09 6.825 1.61 2.1 2.905 4.62 3.885 7.56.98 2.87 1.47 6.3 1.47 10.29 0 8.89-1.645 15.645-4.935 20.265-3.22 4.55-8.575 6.825-16.065 6.825Zm34.748-.84v-72.87h-10.71v-17.325h39.48v17.325h-10.71V221h-18.06Zm33.861 0v-90.195h36.12v17.43h-17.745v17.535h17.01v17.01h-17.01v20.685h18.9V221h-37.275Zm43.272 0v-90.195h27.51l7.56 55.02 7.56-55.02h27.72V221h-16.485v-64.995L278.761 221h-16.17l-11.025-64.995V221h-16.275Z"/>
  <path fill="#fff" d="M359.765 221.84c-7.28 0-12.81-2.205-16.59-6.615-3.78-4.48-5.67-10.745-5.67-18.795v-42.945c0-7.77 1.89-13.615 5.67-17.535 3.78-3.99 9.31-5.985 16.59-5.985 7.28 0 12.81 1.995 16.59 5.985 3.78 3.92 5.67 9.765 5.67 17.535v42.945c0 8.12-1.89 14.385-5.67 18.795-3.78 4.41-9.31 6.615-16.59 6.615Zm0-16.59c1.61 0 2.695-.7 3.255-2.1.56-1.4.84-3.36.84-5.88v-44.1c0-1.96-.28-3.535-.84-4.725-.49-1.26-1.54-1.89-3.15-1.89-3.01 0-4.515 2.275-4.515 6.825v43.995c0 2.59.315 4.55.945 5.88.63 1.33 1.785 1.995 3.465 1.995Zm50.434 16.59c-7.42 0-12.95-2.1-16.59-6.3-3.57-4.2-5.355-10.43-5.355-18.69v-66.045h17.535v65.31c0 2.87.28 5.11.84 6.72.56 1.61 1.75 2.415 3.57 2.415 1.82 0 3.01-.77 3.57-2.31.56-1.61.84-3.885.84-6.825v-65.31h17.535v66.045c0 8.26-1.82 14.49-5.46 18.69-3.57 4.2-9.065 6.3-16.485 6.3Zm36.607-.84v-72.87h-10.71v-17.325h39.48v17.325h-10.71V221h-18.06Zm55.281.84c-8.19 0-14.105-2.03-17.745-6.09-3.64-4.06-5.46-10.605-5.46-19.635v-8.82h17.745v11.235c0 4.48 1.435 6.72 4.305 6.72 1.61 0 2.73-.455 3.36-1.365.63-.98.945-2.59.945-4.83 0-2.94-.35-5.355-1.05-7.245-.7-1.96-1.61-3.57-2.73-4.83-1.05-1.33-2.975-3.36-5.775-6.09l-7.77-7.77c-6.02-5.88-9.03-12.39-9.03-19.53 0-7.7 1.75-13.545 5.25-17.535 3.57-4.06 8.75-6.09 15.54-6.09 8.12 0 13.965 2.17 17.535 6.51 3.57 4.27 5.355 10.99 5.355 20.16h-18.375l-.105-6.195c0-1.19-.35-2.135-1.05-2.835-.63-.7-1.54-1.05-2.73-1.05-1.4 0-2.45.385-3.15 1.155-.7.77-1.05 1.82-1.05 3.15 0 2.94 1.68 5.985 5.04 9.135l10.5 10.08c2.45 2.38 4.48 4.655 6.09 6.825 1.61 2.1 2.905 4.62 3.885 7.56.98 2.87 1.47 6.3 1.47 10.29 0 8.89-1.645 15.645-4.935 20.265-3.22 4.55-8.575 6.825-16.065 6.825Zm26.138-.84v-90.195h17.43V221h-17.43Zm24.629-90.195h24.885c6.44 0 11.27 1.785 14.49 5.355 3.22 3.57 4.865 8.855 4.935 15.855l.21 42.21c.07 8.89-1.47 15.575-4.62 20.055-3.15 4.48-8.365 6.72-15.645 6.72h-24.255v-90.195Zm21.315 74.235c3.29 0 4.935-1.61 4.935-4.83v-46.515c0-2.03-.175-3.535-.525-4.515-.28-1.05-.84-1.75-1.68-2.1-.84-.35-2.135-.525-3.885-.525h-1.995v58.485h3.15ZM604.636 221v-90.195h36.12v17.43h-17.745v17.535h17.01v17.01h-17.01v20.685h18.9V221h-37.275Zm75.651 0v-72.87h-10.71v-17.325h39.48v17.325h-10.71V221h-18.06Zm33.861 0v-90.195h17.955v32.235h8.505v-32.235h17.955V221h-17.955v-40.95h-8.505V221h-17.955Zm52.398 0v-90.195h36.12v17.43h-17.745v17.535h17.01v17.01h-17.01v20.685h18.9V221h-37.275Zm67.881-90.195h24.465c6.58 0 11.34 1.61 14.28 4.83 3.01 3.22 4.515 8.47 4.515 15.75v3.99c0 8.61-3.08 13.755-9.24 15.435 3.78.98 6.44 3.255 7.98 6.825 1.54 3.57 2.31 8.295 2.31 14.175 0 9.59-1.435 16.87-4.305 21.84-2.87 4.9-8.05 7.35-15.54 7.35h-24.465v-90.195Zm21.315 33.915c1.54 0 2.59-.56 3.15-1.68.56-1.19.84-2.835.84-4.935v-9.03c0-2.94-1.295-4.41-3.885-4.41h-3.78v20.055h3.675Zm-1.89 40.425c4.69 0 7.035-2.24 7.035-6.72V187.19c0-2.73-.42-4.795-1.26-6.195-.77-1.4-2.17-2.1-4.2-2.1h-3.36v26.145l1.785.105Zm52.344 16.695c-7.28 0-12.81-2.205-16.59-6.615-3.78-4.48-5.67-10.745-5.67-18.795v-42.945c0-7.77 1.89-13.615 5.67-17.535 3.78-3.99 9.31-5.985 16.59-5.985 7.28 0 12.81 1.995 16.59 5.985 3.78 3.92 5.67 9.765 5.67 17.535v42.945c0 8.12-1.89 14.385-5.67 18.795-3.78 4.41-9.31 6.615-16.59 6.615Zm0-16.59c1.61 0 2.695-.7 3.255-2.1.56-1.4.84-3.36.84-5.88v-44.1c0-1.96-.28-3.535-.84-4.725-.49-1.26-1.54-1.89-3.15-1.89-3.01 0-4.515 2.275-4.515 6.825v43.995c0 2.59.315 4.55.945 5.88.63 1.33 1.785 1.995 3.465 1.995ZM933.11 221l9.66-47.88-7.665-42.42h17.64l4.725 31.08 4.095-31.08h17.745l-7.77 42.42L981.2 221h-18.27l-5.67-35.28-5.775 35.28H933.11Z"/>
</svg>
