<svg width="1206" height="343" viewBox="0 0 1206 343" fill="none" xmlns="http://www.w3.org/2000/svg">
<path d="M351.211 318V316.359C351.211 314.654 351.471 313.124 351.992 311.77C352.526 310.402 353.21 309.139 354.043 307.98C354.876 306.809 355.755 305.663 356.68 304.543C357.578 303.449 358.431 302.329 359.238 301.184C360.059 300.025 360.723 298.775 361.23 297.434C361.751 296.079 362.012 294.562 362.012 292.883C362.012 292.076 361.888 291.385 361.641 290.812C361.406 290.227 360.911 289.934 360.156 289.934C359.01 289.934 358.438 290.956 358.438 293V297.199H351.211C351.198 296.9 351.178 296.561 351.152 296.184C351.139 295.806 351.133 295.441 351.133 295.09C351.133 292.616 351.393 290.52 351.914 288.801C352.435 287.069 353.353 285.754 354.668 284.855C355.996 283.944 357.858 283.488 360.254 283.488C363.105 283.488 365.319 284.289 366.895 285.891C368.483 287.492 369.277 289.777 369.277 292.746C369.277 294.764 369.017 296.535 368.496 298.059C367.975 299.569 367.285 300.949 366.426 302.199C365.566 303.436 364.622 304.673 363.594 305.91C362.865 306.783 362.155 307.674 361.465 308.586C360.788 309.497 360.189 310.474 359.668 311.516H369.043V318H351.211ZM370.938 308.059V303.527H381.016V308.059H370.938ZM392.773 318.02V312.57H382.578V307.199L389.082 283.605H399.785V306.828H401.621V312.57H399.785V318.02H392.773ZM388.711 306.828H392.773V289.504L388.711 306.828ZM412.891 318V283.625H422.344C424.818 283.625 426.68 284.315 427.93 285.695C429.18 287.062 429.805 289.068 429.805 291.711V307.805C429.805 311.06 429.232 313.573 428.086 315.344C426.953 317.115 424.961 318 422.109 318H412.891ZM419.805 311.926H420.996C422.259 311.926 422.891 311.314 422.891 310.09V292.355C422.891 291.21 422.734 290.474 422.422 290.148C422.122 289.81 421.504 289.641 420.566 289.641H419.805V311.926ZM432.617 318V283.625H446.367V290.266H439.609V296.965H446.094V303.43H439.609V311.301H446.816V318H432.617ZM457.109 318.312C454.622 318.312 452.617 317.538 451.094 315.988C449.583 314.439 448.828 312.271 448.828 309.484V293.625C448.828 290.292 449.486 287.74 450.801 285.969C452.129 284.198 454.284 283.312 457.266 283.312C458.893 283.312 460.339 283.612 461.602 284.211C462.878 284.81 463.88 285.708 464.609 286.906C465.339 288.091 465.703 289.589 465.703 291.398V297.336H458.867V292.258C458.867 291.229 458.737 290.539 458.477 290.188C458.216 289.823 457.812 289.641 457.266 289.641C456.628 289.641 456.198 289.875 455.977 290.344C455.755 290.799 455.645 291.411 455.645 292.18V309.387C455.645 310.337 455.781 311.008 456.055 311.398C456.341 311.789 456.745 311.984 457.266 311.984C457.852 311.984 458.262 311.743 458.496 311.262C458.743 310.78 458.867 310.155 458.867 309.387V303.195H465.781V309.699C465.781 312.72 465.02 314.914 463.496 316.281C461.973 317.635 459.844 318.312 457.109 318.312ZM468.086 318V283.625H481.836V290.266H475.078V296.965H481.562V303.43H475.078V311.301H482.285V318H468.086ZM484.57 318V283.625H495.039L497.93 304.582L500.801 283.625H511.367V318H505.078V293.234L501.133 318H494.961L490.781 293.234V318H484.57ZM514.414 318V283.625H523.73C526.23 283.625 528.047 284.237 529.18 285.461C530.326 286.672 530.898 288.677 530.898 291.477V292.98C530.898 294.595 530.605 295.904 530.02 296.906C529.447 297.909 528.568 298.566 527.383 298.879C528.932 299.27 529.967 300.188 530.488 301.633C531.022 303.065 531.289 304.816 531.289 306.887C531.289 309.113 531.081 311.06 530.664 312.727C530.247 314.393 529.492 315.689 528.398 316.613C527.305 317.538 525.749 318 523.73 318H514.414ZM521.133 296.574H522.539C523.177 296.574 523.587 296.327 523.77 295.832C523.952 295.337 524.043 294.745 524.043 294.055V290.598C524.043 289.491 523.555 288.938 522.578 288.938H521.133V296.574ZM521.816 311.945C523.6 311.945 524.492 311.099 524.492 309.406V305.109C524.492 304.133 524.342 303.365 524.043 302.805C523.757 302.232 523.21 301.945 522.402 301.945H521.133V311.906C521.419 311.932 521.647 311.945 521.816 311.945ZM533.555 318V283.625H547.305V290.266H540.547V296.965H547.031V303.43H540.547V311.301H547.754V318H533.555ZM550.039 318V283.625H560.586C562.344 283.625 563.672 284.029 564.57 284.836C565.469 285.63 566.068 286.75 566.367 288.195C566.68 289.628 566.836 291.314 566.836 293.254C566.836 295.129 566.595 296.626 566.113 297.746C565.645 298.866 564.753 299.641 563.438 300.07C564.518 300.292 565.273 300.832 565.703 301.691C566.146 302.538 566.367 303.638 566.367 304.992V318H559.59V304.543C559.59 303.54 559.382 302.922 558.965 302.688C558.561 302.44 557.904 302.316 556.992 302.316V318H550.039ZM557.031 296.359H558.691C559.642 296.359 560.117 295.324 560.117 293.254C560.117 291.913 560.013 291.034 559.805 290.617C559.596 290.201 559.206 289.992 558.633 289.992H557.031V296.359ZM569.844 322.59L571.133 317.98H568.652V312.16H575.957V317.805L573.965 322.59H569.844ZM587.617 318V316.359C587.617 314.654 587.878 313.124 588.398 311.77C588.932 310.402 589.616 309.139 590.449 307.98C591.283 306.809 592.161 305.663 593.086 304.543C593.984 303.449 594.837 302.329 595.645 301.184C596.465 300.025 597.129 298.775 597.637 297.434C598.158 296.079 598.418 294.562 598.418 292.883C598.418 292.076 598.294 291.385 598.047 290.812C597.812 290.227 597.318 289.934 596.562 289.934C595.417 289.934 594.844 290.956 594.844 293V297.199H587.617C587.604 296.9 587.585 296.561 587.559 296.184C587.546 295.806 587.539 295.441 587.539 295.09C587.539 292.616 587.799 290.52 588.32 288.801C588.841 287.069 589.759 285.754 591.074 284.855C592.402 283.944 594.264 283.488 596.66 283.488C599.512 283.488 601.725 284.289 603.301 285.891C604.889 287.492 605.684 289.777 605.684 292.746C605.684 294.764 605.423 296.535 604.902 298.059C604.382 299.569 603.691 300.949 602.832 302.199C601.973 303.436 601.029 304.673 600 305.91C599.271 306.783 598.561 307.674 597.871 308.586C597.194 309.497 596.595 310.474 596.074 311.516H605.449V318H587.617ZM616.055 318.312C613.151 318.312 610.905 317.499 609.316 315.871C607.741 314.243 606.953 311.9 606.953 308.84V293.332C606.953 290.103 607.702 287.629 609.199 285.91C610.71 284.178 612.995 283.312 616.055 283.312C619.128 283.312 621.413 284.178 622.91 285.91C624.408 287.629 625.156 290.103 625.156 293.332V308.84C625.156 311.9 624.368 314.243 622.793 315.871C621.217 317.499 618.971 318.312 616.055 318.312ZM616.055 311.984C616.589 311.984 617.005 311.743 617.305 311.262C617.604 310.78 617.754 310.24 617.754 309.641V292.668C617.754 291.861 617.663 291.158 617.48 290.559C617.311 289.947 616.836 289.641 616.055 289.641C615.273 289.641 614.792 289.947 614.609 290.559C614.44 291.158 614.355 291.861 614.355 292.668V309.641C614.355 310.24 614.505 310.78 614.805 311.262C615.117 311.743 615.534 311.984 616.055 311.984ZM627.148 318V316.359C627.148 314.654 627.409 313.124 627.93 311.77C628.464 310.402 629.147 309.139 629.98 307.98C630.814 306.809 631.693 305.663 632.617 304.543C633.516 303.449 634.368 302.329 635.176 301.184C635.996 300.025 636.66 298.775 637.168 297.434C637.689 296.079 637.949 294.562 637.949 292.883C637.949 292.076 637.826 291.385 637.578 290.812C637.344 290.227 636.849 289.934 636.094 289.934C634.948 289.934 634.375 290.956 634.375 293V297.199H627.148C627.135 296.9 627.116 296.561 627.09 296.184C627.077 295.806 627.07 295.441 627.07 295.09C627.07 292.616 627.331 290.52 627.852 288.801C628.372 287.069 629.29 285.754 630.605 284.855C631.934 283.944 633.796 283.488 636.191 283.488C639.043 283.488 641.257 284.289 642.832 285.891C644.421 287.492 645.215 289.777 645.215 292.746C645.215 294.764 644.954 296.535 644.434 298.059C643.913 299.569 643.223 300.949 642.363 302.199C641.504 303.436 640.56 304.673 639.531 305.91C638.802 306.783 638.092 307.674 637.402 308.586C636.725 309.497 636.126 310.474 635.605 311.516H644.98V318H627.148ZM646.914 318V316.359C646.914 314.654 647.174 313.124 647.695 311.77C648.229 310.402 648.913 309.139 649.746 307.98C650.579 306.809 651.458 305.663 652.383 304.543C653.281 303.449 654.134 302.329 654.941 301.184C655.762 300.025 656.426 298.775 656.934 297.434C657.454 296.079 657.715 294.562 657.715 292.883C657.715 292.076 657.591 291.385 657.344 290.812C657.109 290.227 656.615 289.934 655.859 289.934C654.714 289.934 654.141 290.956 654.141 293V297.199H646.914C646.901 296.9 646.882 296.561 646.855 296.184C646.842 295.806 646.836 295.441 646.836 295.09C646.836 292.616 647.096 290.52 647.617 288.801C648.138 287.069 649.056 285.754 650.371 284.855C651.699 283.944 653.561 283.488 655.957 283.488C658.809 283.488 661.022 284.289 662.598 285.891C664.186 287.492 664.98 289.777 664.98 292.746C664.98 294.764 664.72 296.535 664.199 298.059C663.678 299.569 662.988 300.949 662.129 302.199C661.27 303.436 660.326 304.673 659.297 305.91C658.568 306.783 657.858 307.674 657.168 308.586C656.491 309.497 655.892 310.474 655.371 311.516H664.746V318H646.914Z" fill="white"/>
<path d="M770.523 318V283.625H779.977C782.451 283.625 784.312 284.315 785.562 285.695C786.812 287.062 787.438 289.068 787.438 291.711V307.805C787.438 311.06 786.865 313.573 785.719 315.344C784.586 317.115 782.594 318 779.742 318H770.523ZM777.438 311.926H778.629C779.892 311.926 780.523 311.314 780.523 310.09V292.355C780.523 291.21 780.367 290.474 780.055 290.148C779.755 289.81 779.137 289.641 778.199 289.641H777.438V311.926ZM798.453 318.312C795.706 318.312 793.603 317.486 792.145 315.832C790.699 314.165 789.977 311.763 789.977 308.625V292.297C789.977 289.354 790.693 287.121 792.125 285.598C793.57 284.074 795.68 283.312 798.453 283.312C801.227 283.312 803.329 284.074 804.762 285.598C806.207 287.121 806.93 289.354 806.93 292.297V308.625C806.93 311.763 806.201 314.165 804.742 315.832C803.297 317.486 801.201 318.312 798.453 318.312ZM798.512 311.984C799.553 311.984 800.074 310.975 800.074 308.957V292.18C800.074 290.487 799.566 289.641 798.551 289.641C797.405 289.641 796.832 290.507 796.832 292.238V308.996C796.832 310.064 796.962 310.832 797.223 311.301C797.483 311.757 797.913 311.984 798.512 311.984ZM809.703 318V283.625H820.172L823.062 304.582L825.934 283.625H836.5V318H830.211V293.234L826.266 318H820.094L815.914 293.234V318H809.703ZM848.922 318V283.625H859.391L862.281 304.582L865.152 283.625H875.719V318H869.43V293.234L865.484 318H859.312L855.133 293.234V318H848.922ZM878.766 318V283.625H885.641V312.141H892.711V318H878.766ZM893.727 318L897.047 283.625H908.707L911.969 318H905.465L904.977 312.453H900.836L900.406 318H893.727ZM901.324 306.965H904.449L902.945 289.484H902.633L901.324 306.965ZM914.078 318V283.625H923.531C926.005 283.625 927.867 284.315 929.117 285.695C930.367 287.062 930.992 289.068 930.992 291.711V307.805C930.992 311.06 930.419 313.573 929.273 315.344C928.141 317.115 926.148 318 923.297 318H914.078ZM920.992 311.926H922.184C923.447 311.926 924.078 311.314 924.078 310.09V292.355C924.078 291.21 923.922 290.474 923.609 290.148C923.31 289.81 922.691 289.641 921.754 289.641H920.992V311.926ZM933.492 318V283.625H940.133V318H933.492ZM942.867 318V283.625H949.703V295.91H952.945V283.625H959.781V318H952.945V302.414H949.703V318H942.867ZM980.367 318.312C977.229 318.312 974.964 317.531 973.57 315.969C972.19 314.406 971.5 311.919 971.5 308.508V305.148H978.297V309.445C978.297 310.24 978.414 310.865 978.648 311.32C978.896 311.763 979.319 311.984 979.918 311.984C980.543 311.984 980.973 311.802 981.207 311.438C981.454 311.073 981.578 310.474 981.578 309.641C981.578 308.586 981.474 307.707 981.266 307.004C981.057 306.288 980.693 305.611 980.172 304.973C979.664 304.322 978.954 303.566 978.043 302.707L974.957 299.777C972.652 297.603 971.5 295.116 971.5 292.316C971.5 289.387 972.177 287.154 973.531 285.617C974.898 284.081 976.871 283.312 979.449 283.312C982.6 283.312 984.833 284.152 986.148 285.832C987.477 287.512 988.141 290.064 988.141 293.488H981.148V291.125C981.148 290.656 981.012 290.292 980.738 290.031C980.478 289.771 980.12 289.641 979.664 289.641C979.117 289.641 978.714 289.797 978.453 290.109C978.206 290.409 978.082 290.799 978.082 291.281C978.082 291.763 978.212 292.284 978.473 292.844C978.733 293.404 979.247 294.048 980.016 294.777L983.98 298.586C984.775 299.341 985.504 300.142 986.168 300.988C986.832 301.822 987.366 302.798 987.77 303.918C988.173 305.025 988.375 306.379 988.375 307.98C988.375 311.21 987.776 313.742 986.578 315.578C985.393 317.401 983.323 318.312 980.367 318.312ZM989.742 318L993.062 283.625H1004.72L1007.98 318H1001.48L1000.99 312.453H996.852L996.422 318H989.742ZM997.34 306.965H1000.46L998.961 289.484H998.648L997.34 306.965ZM1010.09 318V283.625H1020.64C1022.4 283.625 1023.73 284.029 1024.62 284.836C1025.52 285.63 1026.12 286.75 1026.42 288.195C1026.73 289.628 1026.89 291.314 1026.89 293.254C1026.89 295.129 1026.65 296.626 1026.17 297.746C1025.7 298.866 1024.81 299.641 1023.49 300.07C1024.57 300.292 1025.33 300.832 1025.76 301.691C1026.2 302.538 1026.42 303.638 1026.42 304.992V318H1019.64V304.543C1019.64 303.54 1019.44 302.922 1019.02 302.688C1018.62 302.44 1017.96 302.316 1017.05 302.316V318H1010.09ZM1017.09 296.359H1018.75C1019.7 296.359 1020.17 295.324 1020.17 293.254C1020.17 291.913 1020.07 291.034 1019.86 290.617C1019.65 290.201 1019.26 289.992 1018.69 289.992H1017.09V296.359ZM1028.22 318L1031.54 283.625H1043.2L1046.46 318H1039.96L1039.47 312.453H1035.33L1034.9 318H1028.22ZM1035.82 306.965H1038.94L1037.44 289.484H1037.12L1035.82 306.965ZM1056.19 318.312C1054.64 318.312 1053.23 318.013 1051.95 317.414C1050.67 316.815 1049.66 315.93 1048.9 314.758C1048.16 313.573 1047.79 312.121 1047.79 310.402V301.789H1054.59V309.992C1054.59 310.591 1054.7 311.073 1054.94 311.438C1055.18 311.802 1055.58 311.984 1056.11 311.984C1057.14 311.984 1057.65 311.353 1057.65 310.09V283.625H1064.59V309.406C1064.59 311.229 1064.23 312.811 1063.51 314.152C1062.8 315.48 1061.81 316.509 1060.54 317.238C1059.28 317.954 1057.83 318.312 1056.19 318.312ZM1067.24 318V283.625H1080.99V290.266H1074.23V296.965H1080.72V303.43H1074.23V311.301H1081.44V318H1067.24ZM1086.89 318L1082.65 283.605H1089.2L1091.71 307.004L1093.96 283.605H1100.5L1096.27 318H1086.89ZM1110.72 318.312C1107.97 318.312 1105.87 317.486 1104.41 315.832C1102.96 314.165 1102.24 311.763 1102.24 308.625V292.297C1102.24 289.354 1102.96 287.121 1104.39 285.598C1105.84 284.074 1107.95 283.312 1110.72 283.312C1113.49 283.312 1115.6 284.074 1117.03 285.598C1118.47 287.121 1119.2 289.354 1119.2 292.297V308.625C1119.2 311.763 1118.47 314.165 1117.01 315.832C1115.56 317.486 1113.47 318.312 1110.72 318.312ZM1110.78 311.984C1111.82 311.984 1112.34 310.975 1112.34 308.957V292.18C1112.34 290.487 1111.83 289.641 1110.82 289.641C1109.67 289.641 1109.1 290.507 1109.1 292.238V308.996C1109.1 310.064 1109.23 310.832 1109.49 311.301C1109.75 311.757 1110.18 311.984 1110.78 311.984ZM1122.71 322.59L1124 317.98H1121.52V312.16H1128.82V317.805L1126.83 322.59H1122.71ZM1140.8 318V283.625H1150.11C1152.61 283.625 1154.43 284.237 1155.56 285.461C1156.71 286.672 1157.28 288.677 1157.28 291.477V292.98C1157.28 294.595 1156.99 295.904 1156.4 296.906C1155.83 297.909 1154.95 298.566 1153.77 298.879C1155.32 299.27 1156.35 300.188 1156.87 301.633C1157.4 303.065 1157.67 304.816 1157.67 306.887C1157.67 309.113 1157.46 311.06 1157.05 312.727C1156.63 314.393 1155.88 315.689 1154.78 316.613C1153.69 317.538 1152.13 318 1150.11 318H1140.8ZM1147.52 296.574H1148.92C1149.56 296.574 1149.97 296.327 1150.15 295.832C1150.33 295.337 1150.43 294.745 1150.43 294.055V290.598C1150.43 289.491 1149.94 288.938 1148.96 288.938H1147.52V296.574ZM1148.2 311.945C1149.98 311.945 1150.88 311.099 1150.88 309.406V305.109C1150.88 304.133 1150.73 303.365 1150.43 302.805C1150.14 302.232 1149.59 301.945 1148.79 301.945H1147.52V311.906C1147.8 311.932 1148.03 311.945 1148.2 311.945ZM1165.95 318.41C1163.82 318.41 1162.14 317.583 1160.91 315.93C1159.7 314.276 1159.1 311.997 1159.1 309.094C1159.1 307.023 1159.28 305.305 1159.64 303.938C1160.02 302.57 1160.54 301.431 1161.21 300.52C1161.87 299.608 1162.63 298.814 1163.49 298.137L1163.34 297.746C1162.79 296.392 1162.31 295.103 1161.89 293.879C1161.49 292.642 1161.29 291.372 1161.29 290.07C1161.29 288.755 1161.57 287.59 1162.12 286.574C1162.68 285.559 1163.46 284.764 1164.45 284.191C1165.45 283.605 1166.6 283.312 1167.89 283.312C1169.16 283.312 1170.32 283.592 1171.36 284.152C1172.42 284.699 1173.26 285.526 1173.88 286.633C1174.51 287.74 1174.82 289.139 1174.82 290.832C1174.82 292.668 1174.48 294.204 1173.79 295.441C1173.11 296.678 1172.09 297.87 1170.72 299.016L1172.59 303.742C1173.36 301.802 1174.47 300.298 1175.91 299.23L1178.63 303.469C1177.12 304.68 1175.86 306.652 1174.84 309.387L1178.28 318H1171.64L1170.88 316.145C1170.37 316.77 1169.68 317.303 1168.82 317.746C1167.98 318.189 1167.02 318.41 1165.95 318.41ZM1167.42 289.465C1167.42 289.803 1167.5 290.305 1167.67 290.969C1167.84 291.62 1168.24 292.753 1168.86 294.367C1169.11 294.107 1169.33 293.697 1169.53 293.137C1169.72 292.577 1169.82 291.809 1169.82 290.832C1169.82 289.829 1169.7 289.126 1169.45 288.723C1169.21 288.319 1168.9 288.117 1168.51 288.117C1168.13 288.117 1167.85 288.26 1167.67 288.547C1167.5 288.82 1167.42 289.126 1167.42 289.465ZM1165.07 309.934C1165.07 312.251 1165.73 313.41 1167.05 313.41C1167.58 313.41 1168.01 313.215 1168.34 312.824C1168.66 312.421 1168.88 312.004 1169 311.574L1165.72 303.586C1165.29 304.497 1165.07 306.092 1165.07 308.371V309.934ZM1180.76 318V283.625H1187.59V295.91H1190.84V283.625H1197.67V318H1190.84V302.414H1187.59V318H1180.76Z" fill="white"/>
<path d="M172.847 0L322.537 85.75V257.25L172.847 343L23.1571 257.25V85.75L172.847 0Z" fill="#EFE200"/>
<path d="M718.228 272L743.54 286.5V315.5L718.228 330L692.916 315.5V286.5L718.228 272Z" fill="#EFE200"/>
<path d="M123.41 221.84C115.22 221.84 109.305 219.81 105.665 215.75C102.025 211.69 100.205 205.145 100.205 196.115V187.295H117.95V198.53C117.95 203.01 119.385 205.25 122.255 205.25C123.865 205.25 124.985 204.795 125.615 203.885C126.245 202.905 126.56 201.295 126.56 199.055C126.56 196.115 126.21 193.7 125.51 191.81C124.81 189.85 123.9 188.24 122.78 186.98C121.73 185.65 119.805 183.62 117.005 180.89L109.235 173.12C103.215 167.24 100.205 160.73 100.205 153.59C100.205 145.89 101.955 140.045 105.455 136.055C109.025 131.995 114.205 129.965 120.995 129.965C129.115 129.965 134.96 132.135 138.53 136.475C142.1 140.745 143.885 147.465 143.885 156.635H125.51L125.405 150.44C125.405 149.25 125.055 148.305 124.355 147.605C123.725 146.905 122.815 146.555 121.625 146.555C120.225 146.555 119.175 146.94 118.475 147.71C117.775 148.48 117.425 149.53 117.425 150.86C117.425 153.8 119.105 156.845 122.465 159.995L132.965 170.075C135.415 172.455 137.445 174.73 139.055 176.9C140.665 179 141.96 181.52 142.94 184.46C143.92 187.33 144.41 190.76 144.41 194.75C144.41 203.64 142.765 210.395 139.475 215.015C136.255 219.565 130.9 221.84 123.41 221.84ZM158.158 221V148.13H147.448V130.805H186.928V148.13H176.218V221H158.158ZM192.019 221V130.805H228.139V148.235H210.394V165.77H227.404V182.78H210.394V203.465H229.294V221H192.019ZM235.291 221V130.805H262.801L270.361 185.825L277.921 130.805H305.641V221H289.156V156.005L278.761 221H262.591L251.566 156.005V221H235.291Z" fill="#131313"/>
<path d="M359.765 221.84C352.485 221.84 346.955 219.635 343.175 215.225C339.395 210.745 337.505 204.48 337.505 196.43V153.485C337.505 145.715 339.395 139.87 343.175 135.95C346.955 131.96 352.485 129.965 359.765 129.965C367.045 129.965 372.575 131.96 376.355 135.95C380.135 139.87 382.025 145.715 382.025 153.485V196.43C382.025 204.55 380.135 210.815 376.355 215.225C372.575 219.635 367.045 221.84 359.765 221.84ZM359.765 205.25C361.375 205.25 362.46 204.55 363.02 203.15C363.58 201.75 363.86 199.79 363.86 197.27V153.17C363.86 151.21 363.58 149.635 363.02 148.445C362.53 147.185 361.48 146.555 359.87 146.555C356.86 146.555 355.355 148.83 355.355 153.38V197.375C355.355 199.965 355.67 201.925 356.3 203.255C356.93 204.585 358.085 205.25 359.765 205.25ZM410.199 221.84C402.779 221.84 397.249 219.74 393.609 215.54C390.039 211.34 388.254 205.11 388.254 196.85V130.805H405.789V196.115C405.789 198.985 406.069 201.225 406.629 202.835C407.189 204.445 408.379 205.25 410.199 205.25C412.019 205.25 413.209 204.48 413.769 202.94C414.329 201.33 414.609 199.055 414.609 196.115V130.805H432.144V196.85C432.144 205.11 430.324 211.34 426.684 215.54C423.114 219.74 417.619 221.84 410.199 221.84ZM446.806 221V148.13H436.096V130.805H475.576V148.13H464.866V221H446.806ZM502.087 221.84C493.897 221.84 487.982 219.81 484.342 215.75C480.702 211.69 478.882 205.145 478.882 196.115V187.295H496.627V198.53C496.627 203.01 498.062 205.25 500.932 205.25C502.542 205.25 503.662 204.795 504.292 203.885C504.922 202.905 505.237 201.295 505.237 199.055C505.237 196.115 504.887 193.7 504.187 191.81C503.487 189.85 502.577 188.24 501.457 186.98C500.407 185.65 498.482 183.62 495.682 180.89L487.912 173.12C481.892 167.24 478.882 160.73 478.882 153.59C478.882 145.89 480.632 140.045 484.132 136.055C487.702 131.995 492.882 129.965 499.672 129.965C507.792 129.965 513.637 132.135 517.207 136.475C520.777 140.745 522.562 147.465 522.562 156.635H504.187L504.082 150.44C504.082 149.25 503.732 148.305 503.032 147.605C502.402 146.905 501.492 146.555 500.302 146.555C498.902 146.555 497.852 146.94 497.152 147.71C496.452 148.48 496.102 149.53 496.102 150.86C496.102 153.8 497.782 156.845 501.142 159.995L511.642 170.075C514.092 172.455 516.122 174.73 517.732 176.9C519.342 179 520.637 181.52 521.617 184.46C522.597 187.33 523.087 190.76 523.087 194.75C523.087 203.64 521.442 210.395 518.152 215.015C514.932 219.565 509.577 221.84 502.087 221.84ZM528.225 221V130.805H545.655V221H528.225ZM552.854 130.805H577.739C584.179 130.805 589.009 132.59 592.229 136.16C595.449 139.73 597.094 145.015 597.164 152.015L597.374 194.225C597.444 203.115 595.904 209.8 592.754 214.28C589.604 218.76 584.389 221 577.109 221H552.854V130.805ZM574.169 205.04C577.459 205.04 579.104 203.43 579.104 200.21V153.695C579.104 151.665 578.929 150.16 578.579 149.18C578.299 148.13 577.739 147.43 576.899 147.08C576.059 146.73 574.764 146.555 573.014 146.555H571.019V205.04H574.169ZM604.636 221V130.805H640.756V148.235H623.011V165.77H640.021V182.78H623.011V203.465H641.911V221H604.636ZM680.287 221V148.13H669.577V130.805H709.057V148.13H698.347V221H680.287ZM714.148 221V130.805H732.103V163.04H740.608V130.805H758.563V221H740.608V180.05H732.103V221H714.148ZM766.546 221V130.805H802.666V148.235H784.921V165.77H801.931V182.78H784.921V203.465H803.821V221H766.546ZM834.427 130.805H858.892C865.472 130.805 870.232 132.415 873.172 135.635C876.182 138.855 877.687 144.105 877.687 151.385V155.375C877.687 163.985 874.607 169.13 868.447 170.81C872.227 171.79 874.887 174.065 876.427 177.635C877.967 181.205 878.737 185.93 878.737 191.81C878.737 201.4 877.302 208.68 874.432 213.65C871.562 218.55 866.382 221 858.892 221H834.427V130.805ZM855.742 164.72C857.282 164.72 858.332 164.16 858.892 163.04C859.452 161.85 859.732 160.205 859.732 158.105V149.075C859.732 146.135 858.437 144.665 855.847 144.665H852.067V164.72H855.742ZM853.852 205.145C858.542 205.145 860.887 202.905 860.887 198.425V187.19C860.887 184.46 860.467 182.395 859.627 180.995C858.857 179.595 857.457 178.895 855.427 178.895H852.067V205.04L853.852 205.145ZM906.196 221.84C898.916 221.84 893.386 219.635 889.606 215.225C885.826 210.745 883.936 204.48 883.936 196.43V153.485C883.936 145.715 885.826 139.87 889.606 135.95C893.386 131.96 898.916 129.965 906.196 129.965C913.476 129.965 919.006 131.96 922.786 135.95C926.566 139.87 928.456 145.715 928.456 153.485V196.43C928.456 204.55 926.566 210.815 922.786 215.225C919.006 219.635 913.476 221.84 906.196 221.84ZM906.196 205.25C907.806 205.25 908.891 204.55 909.451 203.15C910.011 201.75 910.291 199.79 910.291 197.27V153.17C910.291 151.21 910.011 149.635 909.451 148.445C908.961 147.185 907.911 146.555 906.301 146.555C903.291 146.555 901.786 148.83 901.786 153.38V197.375C901.786 199.965 902.101 201.925 902.731 203.255C903.361 204.585 904.516 205.25 906.196 205.25ZM933.11 221L942.77 173.12L935.105 130.7H952.745L957.47 161.78L961.565 130.7H979.31L971.54 173.12L981.2 221H962.93L957.26 185.72L951.485 221H933.11Z" fill="white"/>
</svg>