<svg data-name="Layer 2" xmlns="http://www.w3.org/2000/svg" viewBox="0 0 320.06 349.95"><g data-name="Layer 1"><path d="m160.63.15 158.92 81.09c.28.15.45.43.45.73l-.12 35.51c0 .3-.17.58-.44.73l-126.51 69.76c-.54.29-.87.85-.87 1.46v34.42c0 .14.11.25.25.25.04 0 .09-.01.13-.03l127.14-70.08c.15-.09.35-.03.44.13.03.05.04.1.04.16v107.41c0 .61-.33 1.17-.87 1.47l-157.65 86.76c-.16.08-.36.02-.44-.13-.02-.05-.04-.1-.04-.15l-.23-34.75c0-.67.37-1.3.97-1.64l125.56-69.16c.28-.16.45-.45.45-.76v-34.78c0-.17-.13-.3-.3-.3-.05 0-.1.01-.15.04L160.45 278.2a.39.39 0 0 1-.58-.34l-.06-107.1c0-.66.36-1.27.94-1.59l127.12-70.05c.37-.21.37-.41-.01-.6L160.81 32.56c-.49-.26-1.07-.26-1.57 0l-29.95 15.49c-.3.15-.3.31 0 .47l46.27 24.47c.3.15.3.31 0 .48l-31.24 16.66c-.28.15-.62.15-.91 0L97.98 65.86c-.31-.17-.68-.17-1-.01L32.5 99.18c-.28.14-.61.14-.89-.01L1.32 82.48c-.63-.34-.78-.19-.47.44 10.25 20.85 20.4 41.43 30.47 61.74.66 1.33.99 2.75.99 4.24v94.36c0 .44.24.85.64 1.07l64.1 35.22c.55.31 1 .78 1.28 1.35l23.79 48.08c.45.89.23 1.1-.65.62L.57 262.84a.851.851 0 0 1-.45-.75L0 82.79c0-.75.42-1.44 1.09-1.78L159.39.15c.39-.19.85-.19 1.24 0Z" style="fill:#fff"/><path d="m32.71 116.7 104.44 57.55c.56.31.9.89.91 1.52l.75 156.65c0 1.22-.26 1.28-.8.19L32.03 117.35c-.46-.93-.23-1.15.68-.65Z" style="fill:#ede202"/></g></svg>