<svg xmlns="http://www.w3.org/2000/svg" version="1.1" viewBox="59.43 75.58 781.2 349.98">
<path fill="rgb(255,255,255)" fill-opacity="1.000" d="M 220.07 75.74 L 378.99 156.83 A 0.85 0.81 14.6 0 1 379.44 157.56 L 379.32 193.07 A 0.85 0.82 -14.7 0 1 378.88 193.80 L 252.37 263.56 A 1.68 1.66 -14.7 0 0 251.50 265.02 L 251.50 299.44 A 0.26 0.25 -14.6 0 0 251.88 299.66 L 379.02 229.58 A 0.33 0.32 75.9 0 1 379.50 229.87 L 379.50 337.28 A 1.68 1.68 -14.5 0 1 378.63 338.75 L 220.98 425.51 A 0.33 0.32 -14.4 0 1 220.50 425.23 L 220.27 390.48 A 1.90 1.84 -15.4 0 1 221.24 388.84 L 346.80 319.68 A 0.88 0.87 -14.7 0 0 347.25 318.92 L 347.25 284.14 A 0.30 0.30 -14.7 0 0 346.80 283.88 L 219.89 353.79 A 0.39 0.39 -14.5 0 1 219.31 353.45 L 219.25 246.35 A 1.82 1.81 -14.5 0 1 220.19 244.76 L 347.31 174.71 Q 347.87 174.40 347.30 174.11 L 220.25 108.15 A 1.71 1.69 -44.7 0 0 218.68 108.15 L 188.73 123.64 Q 188.28 123.87 188.73 124.11 L 235.00 148.58 Q 235.45 148.81 235.00 149.06 L 203.76 165.72 A 0.97 0.94 44.7 0 1 202.85 165.71 L 157.42 141.44 A 1.08 1.05 -43.6 0 0 156.42 141.43 L 91.94 174.77 A 0.97 0.94 44.7 0 1 91.05 174.76 L 60.76 158.07 Q 59.82 157.56 60.29 158.51 Q 75.66 189.78 90.76 220.25 Q 91.75 222.25 91.75 224.49 Q 91.75 271.38 91.75 318.85 A 1.23 1.21 14.5 0 0 92.39 319.92 L 156.49 355.14 A 3.11 3.07 -88.9 0 1 157.77 356.49 L 181.56 404.57 Q 182.23 405.91 180.91 405.19 L 60.01 338.43 A 0.85 0.85 11.4 0 1 59.56 337.68 L 59.44 158.38 A 2.01 2.00 -13.7 0 1 60.53 156.60 L 218.83 75.74 A 1.39 1.39 45.6 0 1 220.07 75.74 Z" style="--darkreader-inline-fill: #1d1f20;" data-darkreader-inline-fill=""/>
<path fill="rgb(255,255,255)" fill-opacity="1.000" d="M 822.00 145.14 Q 831.10 146.33 839.66 151.12 A 1.14 1.11 -62.6 0 1 840.11 152.60 L 834.71 163.84 A 0.68 0.67 -62.9 0 1 833.78 164.15 Q 827.91 160.98 821.81 159.19 Q 816.96 157.76 812.94 158.18 Q 810.54 158.43 809.40 159.64 Q 807.72 161.41 809.31 164.19 Q 810.28 165.87 814.00 167.25 Q 819.77 168.85 825.38 170.90 Q 832.98 173.68 835.83 176.42 Q 841.44 181.79 840.15 190.99 Q 839.21 197.76 834.44 201.44 Q 831.47 203.72 827.32 205.16 Q 823.80 206.38 819.54 206.70 Q 802.78 207.96 788.45 197.72 A 1.16 1.16 -58.8 0 1 788.09 196.25 L 793.72 185.12 A 0.69 0.68 -56.7 0 1 794.77 184.90 Q 803.71 192.33 815.26 193.67 Q 818.07 193.99 820.49 192.91 Q 822.54 191.98 823.32 190.33 Q 824.35 188.14 822.44 186.06 Q 820.83 184.31 817.23 183.31 Q 808.61 180.91 802.06 178.44 Q 797.10 176.57 794.33 172.47 Q 791.74 168.65 791.54 163.59 Q 791.26 156.63 796.19 151.69 Q 801.26 146.60 808.51 145.23 Q 814.34 144.14 822.00 145.14 Z" style="--darkreader-inline-fill: #ffffff;" data-darkreader-inline-fill=""/>
<path fill="rgb(255,255,255)" fill-opacity="1.000" d="M 437.57 145.50 L 481.73 145.50 A 0.71 0.70 0.0 0 1 482.44 146.20 L 482.50 157.75 A 0.50 0.50 -45.0 0 1 482.00 158.25 L 453.57 158.31 A 0.53 0.51 0.0 0 0 453.04 158.82 L 453.16 170.81 A 0.53 0.51 0.0 0 0 453.69 171.32 L 479.32 171.48 A 0.89 0.86 0.0 0 1 480.20 172.33 L 480.25 184.00 A 0.50 0.50 -45.0 0 1 479.75 184.50 L 453.67 184.50 A 0.67 0.67 0.0 0 0 453.00 185.17 L 453.00 205.83 A 0.67 0.67 -0.2 0 1 452.33 206.50 L 437.27 206.50 A 0.52 0.52 -90.0 0 1 436.75 205.98 L 436.75 146.32 A 0.82 0.82 0.0 0 1 437.57 145.50 Z" style="--darkreader-inline-fill: #ffffff;" data-darkreader-inline-fill=""/>
<path fill="rgb(255,255,255)" fill-opacity="1.000" d="M 490.25 145.50 L 505.25 145.50 A 0.50 0.50 45.0 0 1 505.75 146.00 Q 505.75 161.75 505.75 177.50 Q 505.75 180.31 506.04 182.54 Q 506.38 185.13 507.59 187.26 Q 511.53 194.18 519.41 193.15 Q 523.63 192.60 526.20 190.27 Q 528.21 188.45 529.14 185.79 Q 529.74 184.08 529.81 180.63 Q 530.17 163.87 529.99 146.22 A 0.71 0.71 89.6 0 1 530.70 145.50 L 545.33 145.50 A 0.67 0.67 89.8 0 1 546.00 146.17 Q 546.00 160.54 546.00 174.87 Q 546.00 185.75 544.65 189.99 Q 542.10 198.04 534.98 202.58 Q 529.62 206.00 522.46 206.80 Q 515.85 207.53 509.00 206.00 Q 501.59 204.34 496.67 199.08 Q 491.64 193.71 490.26 186.90 Q 489.75 184.42 489.75 173.56 Q 489.75 159.78 489.75 146.00 A 0.50 0.50 -45.0 0 1 490.25 145.50 Z" style="--darkreader-inline-fill: #ffffff;" data-darkreader-inline-fill=""/>
<path fill="rgb(255,255,255)" fill-opacity="1.000" d="M 552.07 145.56 L 603.18 145.56 A 0.52 0.50 -0.6 0 1 603.70 146.05 L 603.75 158.07 A 0.69 0.68 -0.0 0 1 603.06 158.75 L 586.35 158.75 A 0.85 0.85 0.2 0 0 585.50 159.60 L 585.50 205.94 A 0.56 0.56 89.8 0 1 584.94 206.50 L 570.06 206.50 A 0.56 0.56 -89.8 0 1 569.50 205.94 L 569.44 159.32 A 0.51 0.50 90.0 0 0 568.94 158.81 L 552.39 158.75 A 0.89 0.86 0.3 0 1 551.50 157.88 L 551.55 146.06 A 0.52 0.51 0.6 0 1 552.07 145.56 Z" style="--darkreader-inline-fill: #ffffff;" data-darkreader-inline-fill=""/>
<path fill="rgb(255,255,255)" fill-opacity="1.000" d="M 609.89 145.50 L 624.59 145.50 A 0.66 0.66 89.5 0 1 625.25 146.16 Q 625.25 162.23 625.25 178.03 Q 625.25 183.84 626.62 186.73 Q 629.22 192.22 635.22 193.06 Q 641.14 193.89 645.10 190.45 Q 649.25 186.85 649.25 179.75 Q 649.25 162.88 649.25 146.44 A 0.94 0.94 0.1 0 1 650.19 145.50 L 664.40 145.50 A 0.85 0.85 0.0 0 1 665.25 146.35 Q 665.25 162.42 665.25 178.03 Q 665.25 186.16 663.87 190.31 Q 659.54 203.40 644.69 206.44 Q 637.59 207.89 629.71 206.46 Q 620.50 204.79 614.68 197.56 Q 611.64 193.79 610.23 189.28 Q 609.27 186.20 609.15 180.10 Q 608.84 163.58 609.01 146.37 A 0.88 0.88 -89.7 0 1 609.89 145.50 Z" style="--darkreader-inline-fill: #ffffff;" data-darkreader-inline-fill=""/>
<path fill="rgb(255,255,255)" fill-opacity="1.000" d="M 671.06 145.50 Q 685.25 145.50 699.25 145.46 Q 705.48 145.44 711.19 147.90 Q 720.42 151.87 722.60 160.48 Q 724.40 167.58 722.33 174.50 Q 720.21 181.57 713.23 186.25 A 0.66 0.65 57.3 0 0 713.04 187.15 L 724.86 205.67 Q 725.39 206.50 724.40 206.50 L 707.57 206.44 A 0.85 0.85 -14.0 0 1 706.82 205.99 L 698.42 190.01 A 0.86 0.79 75.1 0 0 697.70 189.55 L 687.02 189.51 A 0.52 0.51 -89.5 0 0 686.50 190.03 L 686.50 205.94 A 0.56 0.56 89.8 0 1 685.94 206.50 L 671.06 206.50 A 0.56 0.56 -89.8 0 1 670.50 205.94 L 670.50 146.06 A 0.56 0.56 89.8 0 1 671.06 145.50 Z M 706.31 173.06 Q 708.53 169.77 707.96 165.91 Q 707.52 163.00 705.69 161.00 Q 703.60 158.72 700.50 158.50 Q 694.63 158.09 687.31 158.29 A 0.83 0.83 -0.7 0 0 686.50 159.12 L 686.50 176.23 A 0.51 0.51 0.6 0 0 687.00 176.74 Q 694.01 176.91 700.48 176.27 Q 704.41 175.88 706.31 173.06 Z" style="--darkreader-inline-fill: #ffffff;" data-darkreader-inline-fill=""/>
<path fill="rgb(255,255,255)" fill-opacity="1.000" d="M 734.05 145.56 L 780.74 145.50 A 0.70 0.70 -0.3 0 1 781.44 146.20 L 781.50 157.68 A 0.59 0.58 -0.5 0 1 780.92 158.26 L 749.94 158.43 A 0.53 0.51 -0.0 0 0 749.41 158.94 L 749.28 168.89 A 0.62 0.60 0.5 0 0 749.90 169.50 L 777.50 169.50 A 0.74 0.73 0.0 0 1 778.24 170.23 L 778.20 181.68 A 0.51 0.51 0.0 0 1 777.69 182.19 L 749.93 182.25 A 0.67 0.66 -0.4 0 0 749.26 182.92 L 749.30 192.93 A 0.52 0.50 89.4 0 0 749.80 193.44 L 781.37 193.50 A 0.88 0.87 0.0 0 1 782.25 194.37 L 782.25 206.00 A 0.50 0.50 -45.0 0 1 781.75 206.50 L 734.13 206.50 A 0.88 0.88 -45.0 0 1 733.25 205.62 L 733.25 146.37 A 0.81 0.80 -90.0 0 1 734.05 145.56 Z" style="--darkreader-inline-fill: #ffffff;" data-darkreader-inline-fill=""/>
<path fill="rgb(237,226,2)" fill-opacity="1.000" d="M 92.15 192.29 L 196.59 249.84 A 1.77 1.75 14.4 0 1 197.50 251.36 L 198.25 408.01 Q 198.26 409.84 197.45 408.20 L 91.47 192.94 Q 90.78 191.54 92.15 192.29 Z" style="--darkreader-inline-fill: #e4d902;" data-darkreader-inline-fill=""/>
<path fill="rgb(255,255,255)" fill-opacity="1.000" d="M 822.09 220.74 Q 831.76 222.13 840.17 227.05 A 0.67 0.65 -62.2 0 1 840.42 227.90 L 834.88 239.45 A 0.89 0.88 -62.0 0 1 833.64 239.84 Q 825.63 235.15 816.26 233.68 Q 813.09 233.19 810.59 234.66 Q 808.92 235.64 808.69 237.35 Q 808.42 239.43 810.19 240.81 Q 813.24 243.19 818.74 244.52 Q 825.06 246.05 830.97 248.74 Q 839.62 252.69 840.50 261.50 Q 841.45 271.00 835.31 276.56 Q 830.50 280.93 822.22 282.02 Q 803.54 284.50 788.40 273.31 A 0.89 0.89 31.6 0 1 788.13 272.18 L 793.92 260.73 A 0.52 0.51 -56.1 0 1 794.71 260.57 Q 803.66 268.08 815.50 269.50 Q 817.83 269.78 820.23 268.87 Q 822.64 267.96 823.40 266.15 Q 824.40 263.77 822.06 261.44 Q 820.59 259.97 816.75 258.75 Q 810.13 257.12 803.75 254.75 Q 799.05 253.00 795.99 249.99 Q 792.86 246.90 791.98 242.24 Q 790.34 233.68 796.92 226.92 Q 799.91 223.84 803.98 222.44 Q 812.80 219.40 822.09 220.74 Z" style="--darkreader-inline-fill: #ffffff;" data-darkreader-inline-fill=""/>
<path fill="rgb(255,255,255)" fill-opacity="1.000" d="M 437.31 221.25 L 452.15 221.25 A 0.85 0.85 0.0 0 1 453.00 222.10 L 453.00 267.75 A 0.69 0.68 90.0 0 0 453.68 268.44 L 477.87 268.50 A 0.88 0.87 0.0 0 1 478.75 269.37 L 478.75 281.59 A 0.66 0.66 -45.0 0 1 478.09 282.25 L 437.31 282.25 A 0.56 0.56 0.0 0 1 436.75 281.69 L 436.75 221.81 A 0.56 0.56 0.0 0 1 437.31 221.25 Z" style="--darkreader-inline-fill: #ffffff;" data-darkreader-inline-fill=""/>
<path fill="rgb(255,255,255)" fill-opacity="1.000" d="M 483.91 221.25 L 530.83 221.25 A 0.67 0.67 89.8 0 1 531.50 221.92 L 531.45 233.44 A 0.51 0.50 -0.0 0 1 530.94 233.94 L 499.82 234.06 A 0.56 0.55 -0.5 0 0 499.26 234.62 L 499.30 244.68 A 0.51 0.51 0.0 0 0 499.81 245.19 L 527.45 245.25 A 0.80 0.79 0.0 0 1 528.25 246.04 L 528.25 257.34 A 0.69 0.67 -0.4 0 1 527.57 258.01 L 499.95 258.17 A 0.55 0.52 -0.6 0 0 499.41 258.69 L 499.28 268.64 A 0.62 0.60 0.5 0 0 499.90 269.25 L 531.47 269.25 A 0.78 0.78 45.0 0 1 532.25 270.03 L 532.25 281.73 A 0.52 0.52 0.0 0 1 531.73 282.25 L 484.07 282.25 A 0.82 0.82 0.0 0 1 483.25 281.43 L 483.25 221.91 A 0.66 0.66 -0.2 0 1 483.91 221.25 Z" style="--darkreader-inline-fill: #ffffff;" data-darkreader-inline-fill=""/>
<path fill="rgb(255,255,255)" fill-opacity="1.000" d="M 562.05 221.25 L 576.95 221.25 A 1.52 1.50 78.5 0 1 578.34 222.18 L 603.24 281.43 A 0.56 0.54 78.7 0 1 602.75 282.20 L 586.68 282.08 A 0.80 0.67 77.3 0 1 586.02 281.58 L 582.15 272.02 A 0.78 0.74 -10.7 0 0 581.44 271.56 L 556.57 271.56 A 0.77 0.76 -78.2 0 0 555.87 272.02 L 551.88 281.73 A 0.76 0.74 10.9 0 1 551.18 282.19 L 536.14 282.24 A 0.68 0.67 -78.5 0 1 535.52 281.29 L 561.01 221.94 A 1.13 1.13 11.4 0 1 562.05 221.25 Z M 561.27 258.39 A 0.32 0.32 -79.2 0 0 561.56 258.83 L 576.69 258.95 A 0.37 0.34 80.0 0 0 577.01 258.46 L 569.51 238.56 Q 569.26 237.87 569.00 238.55 L 561.27 258.39 Z" style="--darkreader-inline-fill: #ffffff;" data-darkreader-inline-fill=""/>
<path fill="rgb(255,255,255)" fill-opacity="1.000" d="M 607.75 221.25 Q 621.75 221.25 635.75 221.25 Q 640.97 221.25 646.32 223.18 Q 651.47 225.03 655.53 228.39 Q 667.27 238.08 665.72 254.80 Q 664.14 271.77 649.50 278.75 Q 642.14 282.26 632.25 282.25 Q 620.50 282.25 608.12 282.25 A 0.87 0.87 -45.0 0 1 607.25 281.38 L 607.25 221.75 A 0.50 0.50 -45.0 0 1 607.75 221.25 Z M 648.98 256.05 Q 650.39 249.74 648.25 244.50 Q 644.21 234.63 633.00 234.35 Q 628.87 234.25 624.16 234.25 A 0.66 0.66 90.0 0 0 623.50 234.91 L 623.56 268.44 A 0.51 0.51 0.6 0 0 624.06 268.95 Q 627.78 269.04 631.50 269.00 Q 645.90 269.79 648.98 256.05 Z" style="--darkreader-inline-fill: #ffffff;" data-darkreader-inline-fill=""/>
<path fill="rgb(255,255,255)" fill-opacity="1.000" d="M 673.75 221.25 L 720.73 221.25 A 0.71 0.70 0.0 0 1 721.44 221.95 L 721.50 233.50 A 0.50 0.50 -45.0 0 1 721.00 234.00 L 689.78 234.00 A 0.52 0.51 -0.5 0 0 689.26 234.52 L 689.30 244.68 A 0.51 0.51 0.0 0 0 689.81 245.19 L 717.38 245.25 A 0.87 0.87 -45.0 0 1 718.25 246.12 L 718.25 257.44 A 0.56 0.56 89.8 0 1 717.69 258.00 L 689.81 258.00 A 0.56 0.56 90.0 0 0 689.25 258.56 L 689.25 268.75 A 0.50 0.50 -45.0 0 0 689.75 269.25 L 721.37 269.25 A 0.88 0.88 -45.0 0 1 722.25 270.13 L 722.25 281.75 A 0.50 0.50 -45.0 0 1 721.75 282.25 L 674.10 282.25 A 0.85 0.85 -45.0 0 1 673.25 281.40 L 673.25 221.75 A 0.50 0.50 -45.0 0 1 673.75 221.25 Z" style="--darkreader-inline-fill: #ffffff;" data-darkreader-inline-fill=""/>
<path fill="rgb(255,255,255)" fill-opacity="1.000" d="M 731.93 221.25 Q 745.75 221.25 759.00 221.25 Q 766.11 221.25 771.89 223.54 Q 776.94 225.53 780.02 229.43 Q 783.37 233.68 784.07 239.06 Q 784.94 245.82 782.66 251.80 Q 780.31 258.00 773.97 262.10 A 0.51 0.51 -32.2 0 0 773.81 262.80 L 785.60 281.25 Q 786.24 282.25 785.05 282.25 L 768.32 282.19 A 0.85 0.83 75.7 0 1 767.58 281.74 L 759.18 265.75 A 0.85 0.81 75.4 0 0 758.45 265.30 L 748.00 265.25 A 0.50 0.50 45.0 0 0 747.50 265.75 L 747.50 281.68 A 0.56 0.55 -90.0 0 1 746.95 282.24 L 731.93 282.08 A 0.51 0.50 90.0 0 1 731.43 281.57 L 731.25 221.92 A 0.68 0.67 -0.0 0 1 731.93 221.25 Z M 765.53 235.98 Q 763.78 234.67 761.62 234.39 Q 755.33 233.57 748.18 234.15 A 0.55 0.54 -2.3 0 0 747.67 234.69 L 747.55 251.94 A 0.53 0.52 1.1 0 0 748.06 252.46 Q 759.59 252.88 761.75 252.25 Q 769.74 249.91 768.80 241.49 Q 768.43 238.15 765.53 235.98 Z" style="--darkreader-inline-fill: #ffffff;" data-darkreader-inline-fill=""/>
<path fill="rgb(255,255,255)" fill-opacity="1.000" d="M 476.51 301.15 A 0.88 0.87 -62.5 0 1 476.86 302.29 L 474.54 307.22 A 0.82 0.80 -61.8 0 1 473.39 307.58 Q 467.41 304.01 461.00 303.25 Q 454.78 302.52 450.09 304.48 Q 446.15 306.13 445.13 309.67 Q 443.86 314.09 448.19 317.56 Q 451.13 319.92 455.93 321.34 Q 461.97 323.12 467.83 325.40 Q 480.53 330.34 478.25 343.50 Q 477.32 348.86 471.94 352.69 Q 466.16 356.79 457.00 356.67 Q 443.80 356.50 434.11 347.83 A 0.69 0.64 34.7 0 1 433.94 347.04 L 436.37 342.14 A 0.76 0.73 34.0 0 1 437.53 341.94 Q 445.63 348.94 456.00 349.70 Q 458.58 349.88 461.07 349.40 Q 463.98 348.83 465.89 347.99 Q 470.13 346.14 470.75 341.50 Q 471.48 336.04 466.07 333.02 Q 460.71 330.03 454.00 328.25 Q 450.34 327.28 446.72 325.52 Q 442.77 323.60 440.52 321.00 Q 435.08 314.69 438.05 306.73 Q 439.52 302.79 442.77 300.27 Q 446.17 297.64 450.31 296.81 Q 464.12 294.04 476.51 301.15 Z" style="--darkreader-inline-fill: #ffffff;" data-darkreader-inline-fill=""/>
<path fill="rgb(255,255,255)" fill-opacity="1.000" d="M 506.94 296.30 L 512.70 296.25 A 0.56 0.55 90.0 0 1 513.25 296.81 Q 513.25 311.38 513.25 325.51 Q 513.25 336.27 514.62 339.83 Q 517.58 347.49 526.75 349.75 Q 531.66 350.96 537.46 349.36 Q 546.25 346.94 548.75 338.50 Q 549.89 334.66 549.85 329.50 Q 549.75 313.50 549.75 296.81 A 0.56 0.55 -90.0 0 1 550.30 296.25 L 556.05 296.30 A 0.72 0.70 -90.0 0 1 556.75 297.02 Q 556.75 315.75 556.75 333.50 Q 556.75 343.83 549.77 350.27 Q 545.23 354.46 538.74 355.93 Q 532.68 357.29 526.00 356.25 Q 519.39 355.22 514.79 351.43 Q 505.99 344.17 506.09 332.50 Q 506.25 315.25 506.25 297.02 A 0.72 0.69 -90.0 0 1 506.94 296.30 Z" style="--darkreader-inline-fill: #ffffff;" data-darkreader-inline-fill=""/>
<path fill="rgb(255,255,255)" fill-opacity="1.000" d="M 583.90 296.25 L 591.44 296.30 A 0.83 0.81 76.3 0 1 592.17 296.76 L 613.45 338.83 Q 613.81 339.56 614.18 338.83 L 635.19 296.86 A 1.10 1.06 -75.8 0 1 636.17 296.25 L 643.55 296.30 A 0.71 0.71 0.4 0 1 644.25 297.01 L 644.19 355.94 A 0.52 0.51 89.4 0 1 643.69 356.46 L 638.14 356.48 A 0.65 0.63 89.6 0 1 637.50 355.83 L 637.44 308.31 Q 637.44 307.81 637.20 308.25 Q 626.47 328.54 616.44 349.19 Q 615.47 350.84 612.02 349.92 A 1.39 1.38 84.1 0 1 611.13 349.19 L 590.75 308.49 Q 590.00 307.01 590.00 308.67 L 589.94 355.70 A 0.60 0.50 89.5 0 1 589.45 356.30 L 584.17 356.36 A 1.02 0.91 89.7 0 1 583.25 355.34 L 583.25 296.91 A 0.66 0.65 90.0 0 1 583.90 296.25 Z M 644.01 312.42 A 0.12 0.12 0 0 0 643.89 312.30 L 643.87 312.30 A 0.12 0.12 0 0 0 643.75 312.42 L 643.75 351.84 A 0.12 0.12 0 0 0 643.87 351.96 L 643.89 351.96 A 0.12 0.12 0 0 0 644.01 351.84 L 644.01 312.42 Z" style="--darkreader-inline-fill: #ffffff;" data-darkreader-inline-fill=""/>
<path fill="rgb(255,255,255)" fill-opacity="1.000" d="M 672.83 296.29 L 680.31 296.39 A 0.92 0.81 75.3 0 1 681.05 296.89 L 702.15 338.73 Q 702.60 339.62 703.04 338.73 L 724.15 296.77 A 0.96 0.94 13.1 0 1 725.00 296.25 L 732.19 296.25 A 0.81 0.81 89.9 0 1 733.00 297.06 L 732.94 355.68 A 0.62 0.61 84.3 0 1 732.45 356.29 Q 729.73 356.83 726.99 356.34 A 0.60 0.60 -86.0 0 1 726.49 355.76 L 726.19 308.06 Q 726.18 307.56 725.96 308.01 L 704.97 349.55 A 1.23 1.06 -82.8 0 1 704.29 350.16 Q 700.03 351.48 698.94 347.31 Q 689.13 327.84 679.43 308.30 Q 678.56 306.55 678.57 308.50 L 678.74 355.74 A 0.77 0.75 -0.4 0 1 677.97 356.50 L 672.69 356.50 A 0.69 0.69 -0.3 0 1 672.00 355.81 L 672.00 297.15 A 0.86 0.81 -89.3 0 1 672.83 296.29 Z" style="--darkreader-inline-fill: #ffffff;" data-darkreader-inline-fill=""/>
<rect fill="rgb(255,255,255)" fill-opacity="1.000" x="-3.63" y="-30.12" width="7.26" height="60.24" rx="0.52" transform="translate(764.37,326.37) rotate(0.0)" style="--darkreader-inline-fill: #ffffff;" data-darkreader-inline-fill=""/>
<path fill="rgb(255,255,255)" fill-opacity="1.000" d="M 794.12 296.25 L 838.69 296.25 A 0.56 0.55 -0.0 0 1 839.25 296.80 L 839.21 302.20 A 0.52 0.50 0.6 0 1 838.69 302.69 L 820.38 302.75 A 0.88 0.87 0.0 0 0 819.50 303.62 L 819.50 355.94 A 0.56 0.56 89.8 0 1 818.94 356.50 L 813.06 356.50 A 0.56 0.56 -89.8 0 1 812.50 355.94 L 812.44 303.30 A 0.51 0.49 0.6 0 0 811.94 302.81 L 793.69 302.58 A 0.58 0.52 0.6 0 1 793.12 302.06 L 793.07 297.24 A 1.05 0.97 -0.5 0 1 794.12 296.25 Z" style="--darkreader-inline-fill: #ffffff;" data-darkreader-inline-fill=""/>
<rect fill="rgb(255,255,255)" fill-opacity="1.000" x="-0.13" y="-19.83" width="0.26" height="39.66" rx="0.12" transform="translate(643.88,332.13) rotate(0.0)" style="--darkreader-inline-fill: #ffffff;" data-darkreader-inline-fill=""/>
</svg>