<svg xmlns="http://www.w3.org/2000/svg" version="1.1" viewBox="39.35 95.58 1549.3 416.88">
<path fill="rgb(255,255,255)" fill-opacity="1.000" d="M 322.50 95.75 Q 326.86 95.21 331.98 96.58 Q 335.10 97.40 340.66 100.14 Q 470.67 163.99 600.69 227.81 Q 603.41 229.49 604.44 231.31 Q 607.26 236.31 602.71 239.69 Q 600.44 241.37 597.91 242.62 Q 334.28 372.33 330.94 373.69 Q 319.64 378.27 309.89 372.37 Q 305.00 369.41 303.68 368.79 Q 287.15 361.00 280.06 356.94 Q 277.79 355.63 278.23 352.55 A 1.03 1.01 -11.2 0 1 278.74 351.81 L 283.49 349.18 Q 285.09 348.29 283.26 348.25 Q 280.51 348.20 277.85 347.53 Q 272.98 346.29 272.52 341.30 Q 272.49 340.91 272.35 340.74 Q 272.00 340.30 271.56 341.06 Q 270.88 342.58 270.05 344.03 Q 266.49 350.18 259.91 346.98 Q 180.62 308.38 100.39 269.05 A 0.23 0.23 13.2 0 0 100.06 269.25 L 100.00 324.22 Q 100.00 326.21 101.67 327.30 Q 104.27 328.99 105.87 331.48 Q 107.55 334.08 107.68 336.91 Q 107.86 340.89 104.95 343.95 Q 104.82 344.09 103.55 345.54 Q 102.66 346.56 101.39 347.21 A 0.59 0.59 51.0 0 0 101.29 348.19 Q 105.62 351.74 105.64 357.25 Q 105.75 388.88 105.75 420.52 Q 105.75 423.45 102.66 423.46 L 88.17 423.49 A 1.85 1.78 -0.0 0 1 86.31 421.70 Q 86.59 391.57 86.51 361.45 Q 86.49 355.47 86.70 354.58 Q 87.50 351.08 90.82 348.62 A 0.78 0.78 -43.2 0 0 90.86 347.39 Q 79.40 337.63 89.29 328.27 Q 89.34 328.22 90.96 327.03 Q 92.75 325.70 92.60 323.31 Q 92.50 321.73 92.50 321.68 Q 92.55 294.13 92.44 267.22 Q 92.43 265.02 90.45 264.07 Q 67.89 253.17 45.52 241.93 Q 41.44 239.87 40.30 238.06 Q 38.33 234.90 40.50 230.75 Q 41.36 229.11 45.03 227.31 Q 89.40 205.55 133.33 183.96 Q 135.36 182.96 134.69 185.17 L 133.30 189.82 A 0.33 0.33 2.2 0 0 133.68 190.23 Q 134.88 189.97 135.90 189.29 Q 137.30 188.36 137.92 188.16 Q 143.38 186.46 147.97 190.15 Q 148.39 190.49 148.70 190.66 Q 150.61 191.68 149.50 189.77 Q 145.06 182.17 153.41 180.80 Q 153.83 180.73 154.04 180.58 Q 154.50 180.24 154.00 179.89 Q 153.79 179.75 153.45 179.75 Q 149.62 179.75 146.34 179.75 Q 144.93 179.75 146.02 178.85 Q 149.20 176.22 152.88 174.45 Q 229.87 137.42 307.08 100.84 Q 316.20 96.52 322.50 95.75 Z M 224.99 249.82 Q 270.54 305.92 316.29 361.36 Q 317.00 362.22 317.00 361.11 Q 317.00 238.25 316.94 115.75 Q 316.94 113.01 316.48 110.56 A 1.36 1.36 -13.2 0 0 314.77 109.50 Q 311.86 110.31 309.15 111.61 Q 239.38 145.00 169.55 178.32 Q 167.31 179.39 168.87 181.32 Q 190.27 207.85 212.29 234.37 Q 219.12 242.60 224.99 249.82 Z M 157.94 201.19 Q 153.69 204.96 146.94 203.54 Q 146.73 203.50 146.55 203.51 Q 145.48 203.58 146.67 204.09 Q 149.55 205.34 151.83 207.46 A 1.71 1.56 18.4 0 1 152.30 208.30 Q 152.86 211.04 151.53 214.24 Q 150.98 215.56 152.16 214.76 Q 160.35 209.19 167.14 214.47 Q 169.13 216.02 168.01 213.76 Q 166.76 211.25 167.45 208.81 Q 167.84 207.44 169.33 206.34 Q 170.62 205.38 171.98 204.52 Q 172.38 204.27 172.46 203.96 Q 172.66 203.26 171.50 203.49 Q 162.46 205.23 159.89 196.97 Q 159.75 196.53 159.69 196.99 Q 159.29 199.99 157.94 201.19 Z M 171.44 231.31 Q 173.19 232.26 171.56 235.31 L 170.31 237.67 Q 169.39 239.39 171.18 238.44 Q 178.20 234.70 185.86 238.56 Q 187.78 239.53 186.75 237.64 Q 185.47 235.30 185.76 233.28 Q 185.98 231.73 187.74 230.46 Q 189.20 229.41 190.81 228.56 Q 191.75 227.65 190.87 227.52 Q 190.60 227.48 190.14 227.58 Q 181.86 229.32 178.69 221.95 Q 178.50 221.52 178.32 221.96 Q 175.69 228.51 168.23 227.96 Q 166.46 227.83 166.06 227.69 Q 165.24 227.41 165.40 227.87 A 0.95 0.35 22.1 0 0 165.89 228.32 L 171.44 231.31 Z M 184.82 251.40 Q 183.97 251.35 184.39 251.97 Q 184.53 252.17 184.82 252.29 Q 187.46 253.35 189.92 255.24 Q 191.40 256.38 190.57 258.57 L 188.92 262.95 Q 188.71 263.51 189.20 263.12 Q 196.80 257.03 204.82 262.77 Q 205.12 262.98 205.35 263.01 Q 205.94 263.08 205.69 262.31 Q 203.94 259.89 203.56 256.99 A 1.05 0.98 -27.8 0 1 203.86 256.13 Q 206.57 253.42 210.21 252.10 A 0.51 0.34 -26.9 0 0 210.56 251.47 Q 210.30 251.19 209.50 251.25 Q 205.75 251.52 202.20 251.26 Q 200.46 251.14 199.69 249.57 Q 198.69 247.54 197.78 245.49 Q 197.33 244.48 196.78 244.93 Q 196.52 245.14 196.45 245.68 Q 195.77 251.01 190.24 251.37 Q 187.53 251.55 184.82 251.40 Z M 204.54 276.64 L 208.79 279.50 A 1.24 1.16 -79.3 0 1 209.30 280.30 Q 209.63 282.26 208.06 284.81 Q 206.69 287.05 208.36 286.63 Q 208.81 286.51 209.44 286.09 Q 216.53 281.26 223.27 286.69 Q 223.61 286.97 223.95 286.99 Q 224.92 287.04 224.25 286.02 Q 221.21 281.39 225.31 278.31 Q 227.05 277.41 228.75 276.44 A 0.89 0.62 -22.9 0 0 229.22 275.69 Q 229.12 275.14 228.31 275.31 Q 225.82 275.82 223.34 275.61 Q 220.55 275.37 218.94 274.07 Q 217.00 272.50 216.50 269.74 Q 216.13 267.72 215.20 269.63 L 212.95 274.27 A 1.33 0.93 -3.3 0 1 212.21 274.85 Q 208.92 275.88 204.92 275.44 Q 202.31 275.15 204.54 276.64 Z M 222.67 300.55 L 227.58 303.70 Q 229.44 304.90 227.93 306.95 Q 226.67 308.66 226.25 310.76 Q 226.06 311.69 226.80 311.10 Q 233.63 305.58 241.48 310.08 Q 242.56 310.71 241.88 309.66 Q 238.99 305.18 243.68 302.18 Q 245.48 301.03 247.14 300.31 Q 248.56 299.71 247.02 299.75 Q 243.96 299.83 240.93 299.62 Q 239.12 299.49 238.20 298.89 Q 236.90 298.05 236.40 296.50 Q 235.83 294.70 235.81 294.67 Q 234.07 290.92 232.94 295.94 Q 231.98 300.16 227.23 299.71 Q 224.53 299.45 222.87 299.52 Q 221.17 299.59 222.67 300.55 Z M 249.99 322.65 Q 245.75 324.58 241.09 323.58 A 0.45 0.33 12.5 0 0 240.58 323.81 Q 240.54 323.99 240.64 324.18 Q 240.75 324.41 241.10 324.56 Q 243.97 325.82 246.06 327.51 Q 247.70 328.83 246.70 330.92 L 244.74 335.02 Q 244.16 336.25 245.25 335.39 Q 253.06 329.26 260.98 335.16 Q 261.24 335.35 261.44 335.39 Q 262.02 335.50 261.55 334.64 Q 260.28 332.31 260.59 329.92 Q 260.82 328.13 262.51 326.81 Q 264.02 325.63 265.75 324.75 Q 267.29 323.38 265.36 323.80 Q 256.36 325.73 253.34 317.04 Q 253.16 316.53 252.94 317.03 L 250.66 321.98 A 1.36 1.36 -89.1 0 1 249.99 322.65 Z" style="--darkreader-inline-fill: #1d1f20;" data-darkreader-inline-fill=""/>
<path fill="rgb(255,255,255)" fill-opacity="1.000" d="M 669.33 157.74 Q 695.66 157.59 722.00 157.99 Q 731.19 158.14 739.51 161.27 Q 748.53 164.68 754.20 170.67 Q 759.92 176.72 762.05 184.90 Q 764.07 192.64 762.39 200.64 Q 759.15 216.02 743.90 223.43 Q 743.43 223.65 743.93 223.81 Q 767.47 231.11 770.21 253.20 Q 771.51 263.72 768.12 272.89 Q 763.00 286.77 748.44 292.69 Q 736.03 297.73 719.75 297.74 Q 692.50 297.75 665.82 297.75 Q 662.99 297.75 663.00 294.92 Q 663.22 229.38 663.00 164.01 Q 663.00 163.97 662.90 161.99 Q 662.65 157.42 667.17 157.64 Q 669.32 157.74 669.33 157.74 Z M 694.42 184.48 Q 694.12 196.27 694.24 208.80 Q 694.24 208.83 694.14 210.71 Q 693.93 214.49 698.25 213.75 Q 705.57 214.05 712.86 213.56 Q 720.77 213.02 724.70 210.66 Q 730.99 206.87 731.39 199.24 Q 731.70 193.23 728.50 188.87 Q 724.89 183.92 718.25 183.25 Q 707.78 182.19 696.36 182.53 Q 694.47 182.58 694.42 184.48 Z M 695.37 272.83 Q 706.47 273.34 717.99 272.79 Q 723.76 272.52 727.75 271.00 Q 733.96 268.64 736.50 263.10 Q 738.75 258.18 737.84 252.18 Q 736.29 242.01 724.98 238.82 Q 718.01 236.85 710.75 236.93 Q 703.50 237.00 696.23 237.00 Q 694.25 237.00 694.25 238.98 L 694.25 271.66 A 1.17 1.17 1.3 0 0 695.37 272.83 Z" style="--darkreader-inline-fill: #1d1f20;" data-darkreader-inline-fill=""/>
<path fill="rgb(255,255,255)" fill-opacity="1.000" d="M 782.35 157.71 Q 794.88 158.28 808.02 157.68 Q 810.11 157.58 810.77 159.57 Q 811.17 160.77 811.10 162.61 Q 811.01 165.37 811.01 165.38 Q 811.12 186.79 810.81 208.24 Q 810.78 210.33 812.69 211.20 Q 813.86 211.74 815.84 211.64 Q 818.66 211.49 818.66 211.49 Q 864.83 211.31 866.50 211.50 Q 870.60 211.98 871.21 208.97 Q 871.25 208.77 871.25 204.50 Q 871.24 182.17 871.25 160.71 Q 871.25 157.59 874.36 157.73 Q 886.63 158.29 898.50 157.75 Q 902.46 157.57 903.16 160.27 Q 903.25 160.64 903.25 164.73 Q 903.25 229.87 903.25 295.02 Q 903.25 297.09 901.26 297.64 Q 899.95 298.00 898.38 297.91 Q 895.64 297.75 895.62 297.75 Q 875.50 297.75 875.50 297.75 Q 872.88 298.22 871.73 296.54 Q 871.06 295.56 871.08 293.19 Q 871.37 269.22 871.25 245.25 Q 871.83 240.86 868.59 240.26 Q 868.34 240.21 863.89 240.30 Q 834.09 240.85 815.25 240.25 Q 810.95 240.11 810.98 244.06 Q 811.19 269.87 810.94 295.70 Q 810.92 297.75 808.87 297.75 L 781.48 297.75 Q 779.25 297.75 779.25 295.52 L 779.31 160.61 Q 779.31 157.57 782.35 157.71 Z" style="--darkreader-inline-fill: #1d1f20;" data-darkreader-inline-fill=""/>
<path fill="rgb(255,255,255)" fill-opacity="1.000" d="M 948.91 157.75 Q 1029.17 158.13 1032.00 157.75 Q 1037.34 157.04 1037.00 162.75 Q 1036.40 172.87 1036.99 182.84 Q 1037.18 186.00 1034.02 186.00 Q 1012.29 186.00 990.58 186.00 Q 990.12 186.00 983.93 185.74 Q 980.53 185.60 977.24 185.97 Q 975.00 186.23 975.00 188.48 L 975.00 214.61 Q 975.00 217.25 977.65 217.25 L 1019.59 217.31 Q 1022.56 217.32 1022.44 220.30 Q 1021.99 231.12 1022.44 241.94 Q 1022.57 245.01 1019.00 244.97 Q 999.25 244.75 979.50 244.75 Q 975.10 243.99 975.09 248.25 Q 975.00 292.75 975.00 292.75 Q 975.44 295.13 974.18 296.62 Q 973.22 297.75 970.93 297.75 Q 959.71 297.76 948.50 297.75 Q 946.14 298.32 944.17 297.42 A 2.45 2.43 -77.8 0 1 942.75 295.20 L 942.75 160.24 A 1.53 1.30 67.7 0 1 943.04 159.35 Q 944.56 157.44 947.10 157.62 Q 948.87 157.75 948.91 157.75 Z" style="--darkreader-inline-fill: #1d1f20;" data-darkreader-inline-fill=""/>
<path fill="rgb(255,255,255)" fill-opacity="1.000" d="M 1144.55 169.56 L 1171.23 169.55 Q 1173.48 169.55 1173.50 171.83 Q 1173.58 183.88 1173.12 195.24 Q 1172.96 199.42 1176.84 199.12 Q 1178.62 198.98 1178.68 198.98 Q 1187.94 198.83 1196.50 199.22 Q 1198.50 199.31 1198.50 201.30 L 1198.44 221.43 A 1.84 1.82 -0.0 0 1 1196.60 223.25 L 1175.73 223.25 Q 1173.52 223.25 1173.49 225.46 Q 1173.21 242.50 1173.43 260.08 Q 1173.52 267.00 1174.67 269.77 Q 1176.92 275.15 1182.94 276.39 Q 1185.92 277.00 1189.49 275.99 Q 1192.98 275.00 1195.69 273.44 Q 1198.53 271.79 1200.35 273.33 Q 1200.66 273.60 1202.70 276.62 Q 1206.68 282.53 1210.67 288.60 A 1.72 1.72 53.4 0 1 1210.34 290.86 Q 1202.15 297.80 1192.25 299.75 Q 1182.15 301.74 1175.25 301.29 Q 1151.20 299.74 1144.50 277.00 Q 1143.15 272.40 1143.00 265.00 Q 1143.43 245.87 1143.25 226.74 Q 1143.25 226.24 1143.24 226.74 Q 1142.81 245.87 1143.00 265.00 Q 1142.19 230.16 1142.75 227.25 Q 1143.41 223.81 1141.01 223.29 Q 1140.81 223.25 1137.48 223.25 Q 1133.20 223.25 1129.29 223.25 Q 1127.25 223.25 1127.25 221.21 L 1127.25 201.44 Q 1127.25 198.75 1129.93 198.94 Q 1134.62 199.28 1138.50 199.35 Q 1141.95 199.42 1142.90 196.91 Q 1143.30 195.82 1143.11 192.55 Q 1142.50 182.52 1142.79 171.29 A 1.77 1.76 -89.3 0 1 1144.55 169.56 Z" style="--darkreader-inline-fill: #ffffff;" data-darkreader-inline-fill=""/>
<path fill="rgb(255,255,255)" fill-opacity="1.000" d="M 1428.25 195.74 Q 1448.68 195.60 1461.83 209.29 Q 1466.57 214.22 1470.02 221.06 Q 1473.56 228.06 1474.75 234.75 Q 1476.49 244.55 1476.50 254.57 Q 1476.50 257.68 1473.36 257.68 L 1408.50 257.74 Q 1406.27 257.75 1406.81 259.92 Q 1408.87 268.28 1416.06 272.94 Q 1420.78 275.99 1428.08 276.73 Q 1445.46 278.48 1459.82 268.81 Q 1461.92 267.40 1463.28 269.53 L 1473.57 285.62 A 1.79 1.78 54.0 0 1 1473.21 287.95 Q 1470.47 290.27 1467.65 291.87 Q 1449.50 302.18 1427.50 301.00 Q 1417.32 300.46 1408.50 297.22 Q 1399.10 293.77 1392.16 287.44 Q 1380.36 276.67 1377.65 259.73 Q 1375.51 246.34 1379.00 232.25 Q 1381.12 223.67 1385.71 216.85 Q 1390.14 210.26 1397.38 205.23 Q 1410.88 195.85 1428.25 195.74 Z M 1410.70 227.70 Q 1407.69 231.20 1406.73 235.84 Q 1406.28 238.00 1408.49 238.00 L 1445.43 238.00 Q 1447.77 238.00 1447.35 235.70 Q 1445.97 228.11 1440.13 223.91 Q 1434.87 220.13 1427.86 219.81 Q 1417.88 219.35 1410.70 227.70 Z" style="--darkreader-inline-fill: #ffffff;" data-darkreader-inline-fill=""/>
<path fill="rgb(255,255,255)" fill-opacity="1.000" d="M 1528.51 195.86 Q 1544.20 196.64 1559.06 205.19 Q 1561.77 206.75 1560.98 208.85 Q 1560.90 209.07 1559.07 211.76 Q 1554.82 218.03 1550.80 224.84 Q 1549.25 227.47 1546.61 225.92 Q 1540.16 222.13 1532.40 220.22 Q 1522.77 217.85 1515.31 220.56 Q 1509.82 222.56 1511.56 228.69 Q 1512.13 230.69 1515.38 232.03 Q 1523.25 235.28 1533.94 238.06 Q 1539.16 239.42 1545.90 242.39 Q 1565.73 251.13 1563.27 273.22 Q 1561.65 287.79 1548.31 294.56 Q 1542.19 297.67 1537.41 298.84 Q 1516.17 304.01 1495.24 297.80 Q 1486.73 295.27 1478.69 289.31 Q 1475.02 286.59 1477.96 283.23 Q 1484.98 275.21 1486.75 272.25 Q 1488.18 269.85 1489.58 268.67 Q 1491.15 267.36 1492.84 268.50 Q 1499.98 273.28 1507.19 275.56 Q 1517.88 278.94 1528.36 275.88 Q 1531.77 274.89 1533.11 272.68 Q 1534.86 269.83 1533.28 266.80 Q 1532.21 264.74 1529.29 263.21 Q 1525.11 261.00 1520.51 259.71 Q 1514.33 257.96 1508.14 256.24 Q 1498.74 253.63 1491.00 247.75 Q 1484.06 242.48 1481.69 234.29 Q 1479.41 226.39 1481.87 218.74 Q 1484.41 210.85 1491.50 205.25 Q 1496.43 201.36 1501.77 199.56 Q 1514.75 195.19 1528.51 195.86 Z" style="--darkreader-inline-fill: #ffffff;" data-darkreader-inline-fill=""/>
<path fill="rgb(255,255,255)" fill-opacity="1.000" d="M 1381.04 198.61 Q 1383.51 199.30 1383.02 201.92 L 1378.86 224.04 Q 1378.46 226.14 1376.43 225.82 Q 1373.88 225.41 1371.78 225.08 Q 1359.72 223.16 1351.06 230.56 Q 1344.18 236.45 1344.02 246.25 Q 1343.62 270.37 1343.75 295.07 Q 1343.77 297.75 1341.09 297.75 L 1315.23 297.75 Q 1313.25 297.75 1313.25 295.77 Q 1313.25 249.64 1313.25 203.52 Q 1313.25 203.44 1313.14 201.97 Q 1312.92 198.88 1316.50 199.00 Q 1334.04 199.60 1338.25 199.00 Q 1343.16 198.30 1343.00 203.00 Q 1342.86 207.06 1343.66 209.71 A 0.33 0.32 -28.7 0 0 1344.19 209.86 Q 1346.90 207.49 1349.44 204.94 Q 1363.56 193.71 1381.04 198.61 Z" style="--darkreader-inline-fill: #ffffff;" data-darkreader-inline-fill=""/>
<path fill="rgb(255,255,255)" fill-opacity="1.000" d="M 1032.25 199.00 Q 1047.93 199.55 1054.00 199.00 Q 1058.81 198.56 1058.58 202.72 Q 1058.50 204.19 1058.50 204.28 Q 1058.50 250.75 1058.50 250.75 Q 1058.10 257.47 1059.69 263.31 Q 1060.80 267.41 1063.82 270.09 Q 1066.52 272.48 1070.66 273.43 Q 1077.95 275.10 1084.19 270.94 Q 1093.27 264.88 1093.34 253.00 Q 1093.50 228.38 1093.50 201.62 Q 1093.50 199.46 1095.63 199.16 Q 1098.33 198.78 1101.55 198.97 Q 1105.92 199.23 1107.45 199.20 Q 1119.61 199.02 1119.75 199.00 Q 1123.18 198.61 1123.71 201.12 Q 1123.75 201.32 1123.75 204.89 Q 1123.75 294.50 1123.75 294.50 Q 1124.14 297.71 1121.00 297.70 Q 1100.22 297.66 1099.06 297.81 Q 1093.64 298.53 1094.02 292.98 Q 1094.14 291.23 1093.71 289.34 A 0.54 0.54 -27.3 0 0 1092.82 289.06 Q 1075.92 304.30 1053.32 298.92 Q 1043.62 296.62 1037.03 289.23 Q 1028.80 280.02 1028.50 267.50 Q 1027.85 258.64 1027.88 249.75 Q 1028.00 203.25 1028.00 203.25 Q 1027.51 198.83 1032.25 199.00 Z" style="--darkreader-inline-fill: #ffffff;" data-darkreader-inline-fill=""/>
<path fill="rgb(255,255,255)" fill-opacity="1.000" d="M 1211.68 199.04 Q 1223.92 199.31 1235.54 199.02 Q 1238.50 198.94 1238.50 201.90 Q 1238.50 226.75 1238.50 250.75 Q 1238.50 258.92 1240.04 263.87 Q 1241.72 269.29 1246.09 271.82 Q 1249.70 273.92 1255.24 273.55 Q 1267.40 272.76 1271.57 261.73 Q 1272.98 258.01 1273.08 251.07 Q 1273.74 208.00 1273.25 202.75 Q 1272.91 199.08 1276.25 199.12 Q 1297.84 199.36 1300.00 199.00 Q 1303.75 198.38 1303.75 202.25 Q 1303.75 295.00 1303.75 295.00 Q 1303.82 298.06 1300.96 297.85 Q 1299.57 297.74 1299.54 297.74 Q 1288.55 297.62 1277.56 297.94 Q 1273.16 297.58 1273.78 292.97 Q 1274.08 290.77 1273.86 289.54 Q 1273.60 288.08 1272.47 289.04 Q 1253.05 305.60 1229.51 297.73 Q 1222.59 295.42 1217.61 290.13 Q 1210.63 282.71 1209.00 273.00 Q 1207.55 264.37 1207.58 254.25 Q 1207.75 203.50 1207.75 203.50 Q 1207.31 201.20 1208.60 199.91 Q 1209.52 198.99 1211.68 199.04 Z" style="--darkreader-inline-fill: #ffffff;" data-darkreader-inline-fill=""/>
<path fill="rgb(255,255,255)" fill-opacity="0.961" d="M 1143.25 226.74 Q 1143.43 245.87 1143.00 265.00 Q 1142.81 245.87 1143.24 226.74 Q 1143.25 226.24 1143.25 226.74 Z" style="--darkreader-inline-fill: #ffffff;" data-darkreader-inline-fill=""/>
<path fill="rgb(255,255,255)" fill-opacity="1.000" d="M 187.92 323.71 Q 265.17 360.47 309.31 381.94 Q 313.99 384.21 316.22 385.07 Q 322.93 387.66 329.42 384.57 Q 394.46 353.64 459.31 322.31 Q 463.90 320.23 464.81 320.06 Q 468.57 319.37 470.94 321.81 Q 472.81 323.75 474.11 326.95 Q 504.98 403.11 505.19 403.56 Q 506.71 406.99 507.00 409.00 Q 507.70 413.85 502.73 417.32 Q 500.79 418.67 498.70 419.80 Q 415.59 464.61 331.06 510.06 Q 324.61 513.53 318.44 511.98 Q 316.57 511.51 307.61 506.71 Q 225.52 462.70 143.56 418.44 Q 136.95 415.51 138.00 408.25 Q 138.23 406.67 139.87 402.66 Q 155.56 364.22 171.31 325.81 Q 174.10 318.88 179.87 320.14 Q 180.87 320.35 187.92 323.71 Z" style="--darkreader-inline-fill: #1d1f20;" data-darkreader-inline-fill=""/>
<path fill="rgb(255,255,255)" fill-opacity="1.000" d="M 668.59 328.00 Q 711.92 328.00 755.27 328.00 Q 757.25 328.00 757.25 329.98 L 757.25 354.02 Q 757.25 356.02 755.27 356.28 Q 752.39 356.67 749.41 356.52 Q 744.01 356.25 743.58 356.25 Q 699.00 356.25 699.00 356.25 Q 694.85 355.87 695.00 359.75 Q 695.69 377.69 695.25 380.00 Q 694.71 382.88 695.25 385.76 Q 695.58 387.50 697.35 387.50 Q 716.82 387.50 736.38 387.50 Q 736.43 387.50 738.62 387.36 Q 742.14 387.13 742.54 390.18 Q 742.54 390.25 742.45 394.32 Q 742.18 405.14 742.50 411.75 Q 742.68 415.50 739.00 415.49 Q 719.12 415.40 699.25 415.00 Q 695.66 414.93 695.06 417.64 Q 695.01 417.88 694.99 421.87 Q 694.81 458.81 695.25 462.50 Q 695.99 468.67 690.75 468.23 Q 687.80 467.99 687.74 467.99 Q 676.95 467.91 666.83 468.17 Q 666.04 468.19 665.29 467.93 Q 663.06 467.17 663.07 465.00 Q 663.55 398.25 663.00 331.50 Q 663.25 327.69 666.92 327.91 Q 668.50 328.00 668.59 328.00 Z" style="--darkreader-inline-fill: #1d1f20;" data-darkreader-inline-fill=""/>
<path fill="rgb(255,255,255)" fill-opacity="1.000" d="M 1134.85 328.00 Q 1146.48 328.00 1157.96 328.00 Q 1157.98 328.00 1159.55 327.92 Q 1163.38 327.71 1162.75 332.00 Q 1162.75 398.62 1162.75 465.45 Q 1162.75 468.02 1160.18 467.99 Q 1149.03 467.87 1137.06 467.96 Q 1133.20 467.98 1133.51 464.00 Q 1133.68 461.79 1133.05 460.53 A 1.02 1.01 55.6 0 0 1131.47 460.23 Q 1120.32 470.16 1106.77 471.00 Q 1096.88 471.61 1087.37 467.21 Q 1071.44 459.84 1065.26 441.75 Q 1060.87 428.88 1061.50 415.25 Q 1062.00 404.50 1067.14 394.98 Q 1071.74 386.46 1079.73 379.61 Q 1099.89 362.32 1128.25 369.50 Q 1132.56 370.59 1132.34 366.63 Q 1132.25 364.91 1132.25 364.87 Q 1132.23 347.33 1132.25 330.60 Q 1132.25 328.00 1134.85 328.00 Z M 1132.76 334.67 A 0.12 0.12 0 0 0 1132.64 334.55 L 1132.62 334.55 A 0.12 0.12 0 0 0 1132.50 334.67 L 1132.50 367.59 A 0.12 0.12 0 0 0 1132.62 367.71 L 1132.64 367.71 A 0.12 0.12 0 0 0 1132.76 367.59 L 1132.76 334.67 Z M 1099.95 440.29 Q 1105.00 444.48 1111.07 444.81 Q 1117.05 445.14 1122.33 442.63 Q 1129.39 439.28 1131.38 430.58 Q 1132.30 426.59 1132.25 422.50 Q 1132.14 412.25 1132.25 402.00 Q 1132.29 398.58 1131.42 396.75 A 1.56 1.28 5.2 0 0 1130.74 396.08 Q 1118.73 389.88 1106.37 395.79 Q 1100.21 398.74 1097.31 403.31 Q 1088.32 417.49 1095.15 433.79 Q 1096.76 437.64 1099.95 440.29 Z" style="--darkreader-inline-fill: #1d1f20;" data-darkreader-inline-fill=""/>
<rect fill="rgb(255,255,255)" fill-opacity="1.000" x="-16.50" y="-13.74" width="33.00" height="27.48" rx="2.14" transform="translate(1360.31,341.75) rotate(0.0)" style="--darkreader-inline-fill: #ffffff;" data-darkreader-inline-fill=""/>
<rect fill="rgb(255,255,255)" fill-opacity="0.961" x="-0.13" y="-16.58" width="0.26" height="33.16" rx="0.12" transform="translate(1132.63,351.13) rotate(0.0)" style="--darkreader-inline-fill: #ffffff;" data-darkreader-inline-fill=""/>
<path fill="rgb(255,255,255)" fill-opacity="1.000" d="M 1277.24 339.75 Q 1290.00 340.33 1302.77 339.75 Q 1305.00 339.65 1305.00 341.88 L 1305.00 366.71 Q 1305.00 369.50 1307.79 369.50 Q 1316.78 369.50 1325.58 369.50 Q 1325.67 369.50 1327.41 369.38 Q 1330.88 369.14 1330.60 373.01 Q 1329.96 381.87 1330.50 390.77 Q 1330.68 393.75 1327.69 393.75 Q 1318.63 393.75 1308.75 393.75 Q 1305.72 393.75 1305.12 395.93 Q 1305.00 396.37 1305.00 399.58 Q 1305.00 415.66 1305.00 431.75 Q 1304.99 435.93 1306.49 439.66 Q 1308.20 443.91 1311.36 445.72 Q 1315.21 447.93 1320.22 446.40 Q 1324.50 445.10 1328.44 442.94 Q 1331.53 441.70 1333.02 444.35 Q 1333.64 445.44 1333.67 445.49 Q 1338.23 452.57 1342.12 458.88 Q 1343.11 460.50 1341.56 461.58 Q 1316.52 479.07 1289.56 466.44 Q 1286.63 465.06 1283.66 461.81 Q 1281.23 459.13 1279.45 455.73 Q 1275.45 448.08 1274.97 439.25 Q 1274.42 429.22 1274.96 419.19 Q 1274.99 418.64 1274.76 417.86 Q 1274.55 417.20 1274.55 416.50 Q 1274.50 406.75 1274.50 396.73 Q 1274.50 393.62 1271.14 393.62 L 1260.64 393.62 Q 1258.75 393.61 1258.75 391.52 L 1258.75 371.24 A 1.75 1.70 89.3 0 1 1260.41 369.49 Q 1264.00 369.41 1267.92 369.69 Q 1267.92 369.69 1269.58 369.88 Q 1275.02 370.50 1274.79 364.50 Q 1274.35 353.13 1274.49 342.34 Q 1274.53 339.63 1277.24 339.75 Z" style="--darkreader-inline-fill: #ffffff;" data-darkreader-inline-fill=""/>
<path fill="rgb(255,255,255)" fill-opacity="1.000" d="M 1227.77 367.63 Q 1236.99 369.92 1244.44 374.81 Q 1248.57 377.53 1252.19 383.31 Q 1256.68 390.51 1257.75 401.50 Q 1258.44 408.63 1258.38 430.25 Q 1258.33 447.75 1258.25 466.01 Q 1258.24 468.02 1256.23 468.00 Q 1245.06 467.90 1233.88 468.15 Q 1231.43 468.20 1230.41 467.44 Q 1228.75 466.21 1229.25 463.50 Q 1229.44 462.45 1228.85 460.54 A 0.34 0.34 60.9 0 0 1228.31 460.38 Q 1211.52 474.28 1191.42 470.16 Q 1180.61 467.95 1174.39 462.22 Q 1166.92 455.36 1166.00 444.00 Q 1164.67 427.62 1175.21 417.16 Q 1180.66 411.74 1188.89 408.49 Q 1196.55 405.47 1205.00 404.96 Q 1214.91 404.36 1226.16 405.30 Q 1228.55 405.50 1228.47 403.10 Q 1228.28 396.67 1223.39 393.25 Q 1220.02 390.89 1213.64 390.19 Q 1197.74 388.44 1184.07 396.95 Q 1182.13 398.16 1180.82 396.21 L 1170.65 380.96 Q 1169.52 379.28 1171.17 378.20 Q 1189.09 366.46 1209.96 365.83 Q 1219.42 365.54 1227.77 367.63 Z M 1199.21 446.15 Q 1204.50 449.85 1210.76 449.35 Q 1217.71 448.79 1222.68 444.71 Q 1226.93 441.22 1228.43 436.34 Q 1230.06 431.04 1227.90 425.60 Q 1227.22 423.87 1225.36 423.95 Q 1220.12 424.17 1216.00 424.08 Q 1211.11 423.97 1206.52 425.23 Q 1201.13 426.72 1198.35 429.72 Q 1193.80 434.65 1196.36 442.34 Q 1197.15 444.72 1199.21 446.15 Z" style="--darkreader-inline-fill: #ffffff;" data-darkreader-inline-fill=""/>
<path fill="rgb(255,255,255)" fill-opacity="1.000" d="M 830.94 376.56 Q 845.89 387.79 849.72 407.46 Q 854.29 430.94 841.87 449.07 Q 836.14 457.44 827.69 462.96 Q 810.89 473.95 789.43 470.88 Q 773.79 468.65 762.19 458.05 Q 751.51 448.29 747.62 434.29 Q 741.85 413.56 750.33 395.47 Q 754.70 386.16 762.10 379.49 Q 774.24 368.56 791.50 366.50 Q 813.98 363.82 830.94 376.56 Z M 784.22 439.77 Q 790.19 445.03 798.25 444.76 Q 807.79 444.45 813.83 438.44 Q 818.04 434.25 820.11 427.59 Q 822.09 421.22 821.25 414.75 Q 818.97 397.21 803.33 393.59 Q 797.16 392.16 791.69 393.71 Q 785.52 395.45 781.44 400.19 Q 774.66 408.05 774.96 419.75 Q 775.28 431.89 784.22 439.77 Z" style="--darkreader-inline-fill: #ffffff;" data-darkreader-inline-fill=""/>
<path fill="rgb(255,255,255)" fill-opacity="1.000" d="M 1475.35 385.01 Q 1487.68 400.16 1486.94 420.44 Q 1486.12 442.84 1471.06 457.31 Q 1458.28 469.61 1439.00 471.30 Q 1421.19 472.87 1406.80 464.38 Q 1398.25 459.34 1391.95 451.19 Q 1379.09 434.56 1381.50 412.50 Q 1384.22 387.56 1404.11 374.86 Q 1412.44 369.54 1422.51 367.33 Q 1442.35 362.98 1460.01 372.43 Q 1469.05 377.26 1475.35 385.01 Z M 1413.65 406.14 Q 1407.56 417.94 1413.50 431.25 Q 1418.04 441.42 1428.38 444.11 Q 1434.40 445.67 1440.12 444.17 Q 1446.34 442.55 1450.56 437.81 Q 1455.00 432.83 1456.38 426.10 Q 1457.71 419.61 1456.91 413.38 Q 1456.06 406.76 1451.93 401.62 Q 1448.06 396.79 1442.02 394.34 Q 1433.06 390.69 1424.81 394.79 Q 1417.68 398.34 1413.65 406.14 Z" style="--darkreader-inline-fill: #ffffff;" data-darkreader-inline-fill=""/>
<path fill="rgb(255,255,255)" fill-opacity="1.000" d="M 1035.76 370.10 Q 1046.18 373.65 1051.44 382.06 Q 1054.62 387.16 1056.06 393.64 Q 1056.97 397.75 1057.15 405.94 Q 1057.79 436.36 1057.07 466.60 A 1.44 1.43 -89.2 0 1 1055.64 468.00 L 1029.38 468.00 Q 1027.31 468.00 1026.71 466.02 Q 1026.29 464.66 1026.50 462.65 Q 1026.75 460.21 1026.75 459.33 Q 1026.75 435.79 1026.79 412.25 Q 1026.80 404.42 1023.19 399.31 Q 1019.30 393.83 1011.50 393.95 Q 998.33 394.16 993.50 405.25 Q 991.37 410.15 991.40 418.00 Q 991.52 442.13 991.50 465.96 Q 991.50 468.25 989.21 468.19 Q 978.39 467.87 967.59 468.03 Q 963.60 468.09 963.54 468.08 Q 961.05 467.62 961.20 464.40 Q 961.25 463.17 961.25 463.10 Q 961.55 417.68 961.25 372.20 Q 961.23 369.48 963.95 369.50 Q 973.38 369.54 982.39 369.46 Q 987.60 369.42 987.96 369.50 Q 991.57 370.28 991.23 375.27 Q 991.10 377.10 991.29 378.69 Q 991.35 379.23 991.75 378.87 Q 1010.91 361.65 1035.76 370.10 Z M 962.01 403.67 A 0.12 0.12 0 0 0 961.89 403.55 L 961.87 403.55 A 0.12 0.12 0 0 0 961.75 403.67 L 961.75 433.59 A 0.12 0.12 0 0 0 961.87 433.71 L 961.89 433.71 A 0.12 0.12 0 0 0 962.01 433.59 L 962.01 403.67 Z" style="--darkreader-inline-fill: #ffffff;" data-darkreader-inline-fill=""/>
<path fill="rgb(255,255,255)" fill-opacity="1.000" d="M 1557.19 367.56 Q 1578.80 370.24 1585.54 388.91 Q 1587.45 394.21 1587.96 403.83 Q 1588.73 418.61 1588.62 433.42 Q 1588.54 444.64 1588.56 449.09 Q 1588.62 463.80 1588.25 464.75 Q 1586.87 468.31 1583.03 468.08 Q 1581.52 467.99 1581.47 467.99 Q 1571.01 467.90 1560.55 468.19 Q 1557.71 468.27 1557.75 465.43 Q 1558.13 438.13 1557.75 410.75 Q 1557.70 407.07 1556.13 403.23 Q 1554.56 399.41 1551.82 397.05 Q 1545.91 391.96 1537.75 394.25 Q 1527.19 397.22 1523.94 406.40 Q 1522.50 410.44 1522.50 423.26 Q 1522.50 444.09 1522.50 465.31 Q 1522.50 468.25 1519.56 468.18 Q 1508.08 467.88 1496.24 467.99 Q 1496.17 467.99 1494.76 468.11 Q 1491.99 468.34 1491.99 465.25 Q 1492.00 373.50 1492.00 373.50 Q 1491.41 369.24 1495.26 369.43 Q 1496.68 369.50 1496.75 369.50 Q 1508.32 369.46 1519.21 369.55 Q 1521.47 369.58 1521.75 372.13 L 1522.44 378.46 Q 1522.50 379.00 1522.92 378.60 Q 1537.57 365.13 1557.19 367.56 Z" style="--darkreader-inline-fill: #ffffff;" data-darkreader-inline-fill=""/>
<path fill="rgb(255,255,255)" fill-opacity="1.000" d="M 925.06 369.44 Q 947.60 369.65 948.50 369.50 Q 951.75 368.98 951.75 372.50 Q 951.75 419.25 951.75 465.71 Q 951.75 468.26 949.20 468.19 Q 938.05 467.88 926.91 467.99 Q 926.90 467.99 925.09 468.12 Q 921.48 468.39 922.00 464.25 Q 922.16 462.94 921.30 459.06 A 0.30 0.30 63.6 0 0 920.81 458.89 Q 914.92 463.91 908.56 466.81 Q 891.67 474.53 876.00 467.55 Q 868.12 464.03 863.39 458.13 Q 858.30 451.79 856.77 443.25 Q 855.82 437.92 855.81 432.50 Q 855.75 402.50 855.75 371.74 Q 855.75 369.50 857.99 369.50 L 883.62 369.50 Q 886.25 369.50 886.25 372.13 Q 886.25 398.00 886.25 424.00 Q 886.25 429.03 887.28 432.99 Q 888.50 437.64 891.87 440.44 Q 897.52 445.14 905.79 443.47 Q 915.09 441.59 918.89 432.92 Q 920.77 428.62 921.19 424.04 Q 921.24 423.52 921.27 414.96 Q 921.36 394.01 921.06 373.06 Q 921.07 369.40 925.06 369.44 Z" style="--darkreader-inline-fill: #ffffff;" data-darkreader-inline-fill=""/>
<rect fill="rgb(255,255,255)" fill-opacity="1.000" x="-15.26" y="-49.27" width="30.52" height="98.54" rx="2.39" transform="translate(1360.26,418.78) rotate(0.0)" style="--darkreader-inline-fill: #ffffff;" data-darkreader-inline-fill=""/>
<rect fill="rgb(255,255,255)" fill-opacity="0.961" x="-0.13" y="-15.08" width="0.26" height="30.16" rx="0.12" transform="translate(961.88,418.63) rotate(0.0)" style="--darkreader-inline-fill: #ffffff;" data-darkreader-inline-fill=""/>
</svg>