<svg id="Layer_2" data-name="Layer 2" xmlns="http://www.w3.org/2000/svg" viewBox="24.97 14.95 51.05 39.87">
  <defs>
    <style>
      .cls-1 {
        fill: #fff;
      }

      .cls-2 {
        fill: none;
      }
    </style><style class="darkreader darkreader--sync" media="screen"/>
  </defs>
  <g id="Artwork">
    <g id="Maestro_w_1:1" data-name="Maestro w 1:1">
      <rect id="Rechteck_1701" data-name="Rechteck 1701" class="cls-2" width="100" height="70"/>
      <rect id="Rechteck_1702" data-name="Rechteck 1702" class="cls-2" x="25" width="51" height="70"/>
      <rect id="Rechteck_1703" data-name="Rechteck 1703" class="cls-2" x="15.5" y="9.5" width="70" height="51"/>
      <g id="Gruppe_2698" data-name="Gruppe 2698">
        <path id="Pfad_3369" data-name="Pfad 3369" class="cls-1" d="M49.1,43.52c.12,.11,.25,.21,.38,.32-2.58,1.72-5.62,2.64-8.73,2.63-8.7,0-15.76-7.06-15.76-15.76h0c0-8.7,7.05-15.76,15.76-15.76h0c3.1,0,6.14,.91,8.73,2.63-.13,.1-.26,.21-.38,.32-3.71,3.22-5.84,7.9-5.84,12.81,0,4.91,2.13,9.59,5.84,12.81Zm11.13-28.57c-3.1,0-6.14,.91-8.73,2.63,.13,.1,.26,.21,.38,.32,3.71,3.22,5.84,7.9,5.84,12.81,0,4.91-2.13,9.59-5.84,12.81-.12,.11-.25,.21-.38,.32,2.58,1.72,5.62,2.64,8.73,2.63,8.7,0,15.76-7.05,15.76-15.76h0c0-8.71-7.05-15.76-15.76-15.76h0Zm-9.74,3.38c-.2,.16-.4,.32-.6,.49-3.45,2.99-5.43,7.33-5.42,11.89,0,4.56,1.98,8.9,5.42,11.89,.19,.17,.4,.33,.6,.49,.2-.16,.4-.32,.6-.49,3.45-2.99,5.43-7.33,5.42-11.89,0-4.56-1.98-8.9-5.42-11.89-.19-.17-.39-.33-.6-.49"/>
        <path id="Pfad_3576" data-name="Pfad 3576" class="cls-1" d="M62.06,50.37c.22,0,.44,.04,.65,.11l-.28,.86c-.18-.07-.37-.11-.57-.1-.59,0-.89,.39-.89,1.08v2.35h-.91v-4.19h.9v.51c.23-.39,.65-.62,1.1-.61h0Zm-3.36,.94h-1.49v1.89c0,.42,.15,.7,.6,.7,.28-.01,.56-.09,.8-.24l.26,.78c-.34,.21-.74,.33-1.14,.32-1.08,0-1.45-.58-1.45-1.55v-1.91h-.85v-.83h.85v-1.27h.92v1.27h1.49v.83h0Zm-11.65,.89c.03-.58,.53-1.04,1.11-1.02,.57-.01,1.05,.44,1.06,1.02h-2.17Zm3.12,.37c.11-1.1-.7-2.08-1.8-2.19-.06,0-.12,0-.18,0-1.21,.08-2.13,1.12-2.05,2.34,.07,1.13,.99,2.02,2.12,2.06,.62,.02,1.23-.19,1.72-.59l-.45-.68c-.35,.28-.77,.43-1.22,.44-.63,.05-1.18-.4-1.25-1.02h3.11c0-.11,.02-.23,.02-.35h0Zm4-1.02c-.4-.23-.84-.35-1.3-.36-.5,0-.8,.18-.8,.49,0,.28,.31,.36,.71,.41l.43,.06c.91,.13,1.46,.52,1.46,1.25,0,.8-.7,1.37-1.91,1.37-.65,.02-1.28-.17-1.81-.54l.43-.71c.4,.3,.89,.45,1.39,.44,.62,0,.95-.18,.95-.51,0-.24-.24-.37-.74-.44l-.43-.06c-.94-.13-1.45-.55-1.45-1.23,0-.83,.68-1.34,1.74-1.34,.6-.02,1.19,.13,1.71,.44l-.39,.73h0Zm11.23-.31c-.18,0-.36,.03-.52,.1-.16,.06-.3,.16-.42,.28-.12,.12-.21,.27-.28,.43-.13,.35-.13,.74,0,1.09,.06,.16,.16,.3,.28,.43,.12,.12,.26,.21,.42,.28,.34,.13,.71,.13,1.04,0,.32-.13,.57-.38,.7-.7,.13-.35,.13-.74,0-1.09-.13-.32-.38-.57-.7-.7-.17-.07-.34-.1-.52-.1h0Zm0-.87c.31,0,.61,.05,.9,.17,.27,.11,.51,.26,.72,.46,.2,.2,.36,.44,.47,.7,.23,.56,.23,1.19,0,1.76-.11,.26-.27,.5-.47,.7-.21,.2-.45,.36-.72,.46-.58,.22-1.22,.22-1.8,0-.27-.11-.51-.26-.72-.46-.2-.2-.36-.44-.47-.7-.23-.56-.23-1.19,0-1.76,.11-.26,.27-.5,.47-.7,.21-.2,.45-.36,.72-.46,.29-.11,.59-.17,.9-.17h0Zm-23.66,2.2c.04-.7,.64-1.23,1.34-1.19,.7,.04,1.23,.64,1.19,1.34-.04,.67-.59,1.19-1.26,1.19-.69,0-1.26-.55-1.27-1.24,0-.03,0-.07,0-.1Zm3.39,0v-2.09h-.91v.51c-.32-.41-.81-.64-1.32-.61-1.22,0-2.2,.98-2.2,2.2s.98,2.2,2.2,2.2c.51,.02,1.01-.21,1.32-.61v.51h.91v-2.1Zm-5.13,2.09v-2.63c.06-.86-.59-1.6-1.45-1.66-.07,0-.13,0-.2,0-.59-.04-1.15,.25-1.47,.74-.29-.48-.82-.77-1.38-.74-.49-.02-.96,.21-1.23,.62v-.52h-.91v4.19h.92v-2.32c-.07-.54,.3-1.03,.84-1.1,.06,0,.13-.01,.19,0,.6,0,.91,.39,.91,1.1v2.33h.92v-2.32c-.07-.54,.31-1.04,.85-1.11,.06,0,.11,0,.17,0,.62,0,.92,.39,.92,1.1v2.33h.92Z"/>
      </g>
    </g>
  </g>
</svg>