<svg id="Layer_2" data-name="Layer 2" xmlns="http://www.w3.org/2000/svg" viewBox="0 0 51.03 39.58">
  <defs>
    <style>
      .cls-1 {
        fill: #fff;
      }
    </style><style class="darkreader darkreader--sync" media="screen"/>
  </defs>
  <g id="Artwork">
    <g id="Gruppe_2697" data-name="Gruppe 2697">
      <path id="Pfad_3369" data-name="Pfad 3369" class="cls-1" d="M9.28,39.45v-2.63c.06-.86-.59-1.6-1.45-1.66-.07,0-.13,0-.2,0-.59-.04-1.15,.25-1.47,.74-.29-.48-.82-.77-1.38-.74-.49-.02-.96,.21-1.23,.62v-.52h-.91v4.18h.92v-2.32c-.07-.53,.3-1.03,.83-1.1,.06,0,.13-.01,.19,0,.6,0,.91,.39,.91,1.1v2.33h.92v-2.32c-.07-.54,.31-1.04,.85-1.11,.06,0,.11,0,.17,0,.62,0,.92,.39,.92,1.1v2.33h.93Zm13.6-4.18h-1.49v-1.27h-.92v1.27h-.85v.83h.85v1.91c0,.97,.38,1.55,1.45,1.55,.4,0,.8-.11,1.14-.32l-.26-.78c-.24,.14-.52,.23-.8,.24-.46,0-.6-.28-.6-.7v-1.89h1.49v-.83Zm7.76-.1c-.45-.01-.87,.22-1.1,.61v-.51h-.9v4.18h.91v-2.35c0-.69,.3-1.08,.89-1.08,.19,0,.39,.03,.57,.1l.28-.86c-.21-.07-.43-.11-.65-.11h0Zm-11.74,.44c-.52-.31-1.11-.46-1.71-.44-1.06,0-1.74,.51-1.74,1.34,0,.68,.51,1.1,1.44,1.24l.43,.06c.5,.07,.73,.2,.73,.44,0,.32-.33,.51-.96,.51-.5,.01-.99-.14-1.39-.44l-.43,.71c.53,.37,1.17,.56,1.81,.54,1.21,0,1.91-.57,1.91-1.37,0-.74-.55-1.12-1.46-1.25l-.43-.06c-.39-.05-.71-.13-.71-.41,0-.31,.3-.49,.8-.49,.46,0,.9,.13,1.3,.36l.4-.74Zm24.39-.44c-.45-.01-.87,.22-1.1,.61v-.51h-.9v4.18h.91v-2.35c0-.69,.3-1.08,.89-1.08,.19,0,.39,.03,.57,.1l.28-.86c-.21-.07-.43-.11-.65-.11h0Zm-11.73,2.2c-.05,1.17,.86,2.15,2.02,2.2,.07,0,.14,0,.21,0,.55,.03,1.08-.15,1.51-.5l-.44-.74c-.32,.24-.7,.37-1.1,.38-.69,0-1.26-.55-1.26-1.24,0-.03,0-.07,0-.1-.05-.69,.47-1.29,1.16-1.34,.03,0,.07,0,.1,0,.4,0,.78,.14,1.1,.38l.44-.74c-.42-.35-.96-.53-1.51-.5-1.17-.07-2.16,.83-2.23,1.99,0,.07,0,.14,0,.21h0Zm8.53,0v-2.09h-.91v.51c-.32-.41-.81-.63-1.32-.61-1.16,0-2.1,.95-2.09,2.11,0,.03,0,.06,0,.09-.06,1.16,.84,2.14,2,2.2,.03,0,.06,0,.09,0,.51,.02,1.01-.21,1.32-.61v.51h.91v-2.1Zm-3.39,0c-.05-.69,.48-1.29,1.17-1.34,.03,0,.07,0,.1,0,.69,0,1.26,.55,1.26,1.24,0,.03,0,.06,0,.1,.05,.69-.47,1.29-1.17,1.34-.03,0-.06,0-.1,0-.69,0-1.26-.54-1.27-1.24,0-.03,0-.07,0-.1Zm-10.99-2.2c-1.13-.02-2.06,.87-2.09,2,0,.07,0,.13,0,.2-.08,1.14,.78,2.12,1.92,2.2,.07,0,.15,0,.22,0,.62,.02,1.24-.19,1.72-.59l-.45-.67c-.35,.28-.77,.43-1.22,.44-.63,.05-1.18-.4-1.25-1.02h3.11c0-.11,.02-.23,.02-.35,.11-1.1-.7-2.08-1.8-2.19-.06,0-.12,0-.18,0h0Zm-.02,.81c.57-.01,1.05,.44,1.06,1.02h-2.17c.03-.58,.53-1.04,1.11-1.02Zm22.84,1.38v-3.77h-.91v2.19c-.32-.41-.81-.63-1.32-.61-1.16,0-2.1,.95-2.09,2.11,0,.03,0,.06,0,.09-.06,1.16,.84,2.14,2,2.2,.03,0,.06,0,.09,0,.51,.02,1.01-.21,1.32-.61v.51h.91v-2.1Zm-3.39,0c-.05-.69,.48-1.29,1.17-1.34,.03,0,.07,0,.1,0,.69,0,1.26,.55,1.27,1.24,0,.03,0,.06,0,.09,.05,.69-.48,1.29-1.17,1.34-.03,0-.06,0-.1,0-.69,0-1.26-.54-1.27-1.24,0-.03,0-.07,0-.1Zm-30.75,0v-2.09h-.91v.51c-.32-.41-.81-.64-1.32-.61-1.16,0-2.1,.95-2.09,2.11,0,.03,0,.06,0,.09-.06,1.16,.84,2.14,2,2.2,.03,0,.06,0,.09,0,.51,.02,1.01-.21,1.32-.61v.51h.91v-2.1Zm-3.39,0c-.05-.69,.48-1.29,1.17-1.34,.03,0,.07,0,.1,0,.69,0,1.26,.55,1.26,1.25,0,.03,0,.06,0,.09,.05,.69-.47,1.29-1.17,1.34-.03,0-.06,0-.09,0-.69,0-1.26-.55-1.27-1.24,0-.03,0-.06,0-.1h0Zm13.08-8.79c.12,.11,.25,.21,.38,.32-2.58,1.72-5.62,2.64-8.73,2.63C7.06,31.52,0,24.46,0,15.76H0C0,7.06,7.05,0,15.76,0h0c3.1,0,6.14,.91,8.73,2.63-.13,.1-.26,.21-.38,.32-3.71,3.22-5.84,7.9-5.84,12.81,0,4.92,2.13,9.59,5.85,12.81h0ZM35.24,0c-3.1,0-6.14,.91-8.73,2.63,.13,.1,.26,.21,.38,.32,3.71,3.22,5.84,7.9,5.84,12.81,0,4.91-2.13,9.59-5.84,12.81-.12,.11-.25,.21-.38,.32,2.58,1.72,5.62,2.64,8.73,2.63,8.7,0,15.76-7.05,15.76-15.76h0C51,7.06,43.95,0,35.24,0h0Zm-9.74,3.38c-.2,.16-.4,.32-.6,.49-3.45,2.99-5.43,7.33-5.42,11.89,0,4.56,1.98,8.9,5.42,11.89,.19,.17,.4,.33,.6,.49,.2-.16,.4-.32,.6-.49,3.45-2.99,5.43-7.33,5.42-11.89,0-4.56-1.98-8.9-5.42-11.89-.19-.17-.39-.33-.6-.49"/>
    </g>
  </g>
</svg>