<svg id="Layer_2" data-name="Layer 2" xmlns="http://www.w3.org/2000/svg" viewBox="22.98 27.93 54.45 14.57">
  <defs>
    <style>
      .cls-1 {
        fill: #fff;
      }

      .cls-2 {
        fill: none;
      }
    </style><style class="darkreader darkreader--sync" media="screen"/>
  </defs>
  <g id="Artwork">
    <g id="Paypal_w_1:1" data-name="Paypal w 1:1">
      <rect id="Rechteck_1607" data-name="Rechteck 1607" class="cls-2" width="100" height="70"/>
      <g id="Gruppe_2384" data-name="Gruppe 2384">
        <path id="path14519" class="cls-1" d="M52.97,31.91h-2.04c-.2,0-.38,.1-.49,.26l-2.81,4.14-1.19-3.98c-.07-.25-.3-.42-.56-.42h-2c-.19,0-.35,.16-.35,.35,0,.04,0,.08,.02,.12l2.24,6.58-2.11,2.98c-.11,.16-.08,.38,.08,.49,.06,.04,.13,.07,.21,.07h2.04c.19,0,.37-.09,.48-.25l6.77-9.78c.11-.16,.07-.38-.09-.49-.06-.04-.13-.06-.2-.06m-13.62,3.95c-.16,1.13-1.14,1.96-2.29,1.94-.86,.09-1.63-.54-1.72-1.4-.02-.19,0-.39,.05-.57,.16-1.13,1.13-1.96,2.27-1.95,.51-.03,1.01,.18,1.35,.55,.32,.4,.45,.93,.34,1.43m2.83-3.95h-2.02c-.17,0-.32,.13-.35,.3l-.09,.57-.14-.2c-.62-.64-1.51-.95-2.39-.85-2.31,.05-4.23,1.78-4.52,4.08-.22,1.1,.06,2.24,.75,3.11,.65,.71,1.59,1.09,2.55,1.03,1.05,0,2.06-.41,2.8-1.16l-.09,.56c-.03,.19,.1,.37,.29,.4,.02,0,.04,0,.05,0h1.83c.29,0,.54-.21,.58-.5l1.1-6.94c.03-.19-.11-.37-.3-.4-.02,0-.04,0-.05,0m-12.16,.05c-.23,1.52-1.39,1.52-2.51,1.52h-.64l.45-2.84c.03-.17,.17-.3,.35-.3h.29c.76,0,1.48,0,1.86,.43,.24,.34,.31,.78,.2,1.18m-.49-3.96h-4.23c-.29,0-.54,.21-.58,.5l-1.71,10.85c-.03,.19,.1,.37,.29,.4,.02,0,.04,0,.05,0h2.02c.29,0,.54-.21,.58-.5l.46-2.93c.04-.29,.29-.5,.58-.5h1.34c2.79,0,4.4-1.35,4.82-4.02,.24-.95,.04-1.95-.54-2.73-.82-.79-1.95-1.19-3.08-1.08"/>
        <path id="path14523" class="cls-1" d="M74.75,28.3l-1.74,11.05c-.03,.19,.1,.37,.29,.4,.02,0,.04,0,.06,0h1.75c.29,0,.54-.21,.58-.5l1.71-10.85c.03-.19-.1-.37-.29-.4-.02,0-.04,0-.06,0h-1.95c-.17,0-.32,.13-.35,.3m-5.21,7.56c-.16,1.13-1.14,1.96-2.29,1.94-.86,.09-1.63-.53-1.72-1.4-.02-.19,0-.39,.05-.57,.16-1.13,1.13-1.96,2.27-1.95,.51-.03,1.01,.18,1.35,.55,.32,.4,.45,.93,.34,1.43m2.83-3.95h-2.03c-.17,0-.32,.13-.35,.3l-.09,.57-.14-.2c-.62-.64-1.51-.95-2.39-.85-2.31,.05-4.24,1.78-4.52,4.08-.22,1.1,.06,2.24,.76,3.11,.65,.71,1.59,1.09,2.55,1.03,1.05,.01,2.07-.41,2.81-1.16l-.09,.56c-.03,.19,.1,.37,.29,.4,.02,0,.04,0,.05,0h1.83c.29,0,.54-.21,.58-.5l1.1-6.94c.03-.19-.11-.37-.3-.4,0,0,0,0,0,0-.02,0-.04,0-.05,0m-12.16,.05c-.23,1.52-1.39,1.52-2.51,1.52h-.64l.45-2.84c.03-.17,.17-.3,.35-.3h.29c.76,0,1.48,0,1.86,.43,.24,.34,.31,.78,.2,1.18m-.49-3.96h-4.23c-.29,0-.54,.21-.58,.5l-1.71,10.85c-.03,.19,.1,.37,.29,.4,.02,0,.04,0,.05,0h2.17c.2,0,.38-.15,.41-.35l.49-3.08c.04-.29,.29-.5,.58-.5h1.34c2.79,0,4.4-1.35,4.82-4.02,.24-.95,.04-1.95-.54-2.73-.82-.79-1.95-1.19-3.08-1.08"/>
      </g>
    </g>
  </g>
</svg>