<svg id="Layer_2" data-name="Layer 2" xmlns="http://www.w3.org/2000/svg" viewBox="24.97 27 50.67 16.38">
  <defs>
    <style>
      .cls-1 {
        fill: #fff;
      }

      .cls-2 {
        fill: none;
      }
    </style><style class="darkreader darkreader--sync" media="screen"/>
  </defs>
  <g id="Artwork">
    <g id="Visa_w_1:1" data-name="Visa w 1:1">
      <rect id="Rechteck_1607" data-name="Rechteck 1607" class="cls-2" width="100" height="70"/>
      <rect id="Rechteck_1669" data-name="Rechteck 1669" class="cls-2" x="25" width="51" height="70"/>
      <rect id="Rechteck_1673" data-name="Rechteck 1673" class="cls-2" x="15.5" y="9.5" width="70" height="51"/>
      <path id="Pfad_3368" data-name="Pfad 3368" class="cls-1" d="M51.18,32.23c-.03,2.28,2.03,3.55,3.58,4.3,1.59,.78,2.13,1.27,2.12,1.97-.01,1.06-1.27,1.53-2.45,1.55-1.46,.03-2.91-.31-4.2-1l-.74,3.47c1.45,.56,2.99,.85,4.55,.84,4.3,0,7.11-2.12,7.12-5.41,.02-4.17-5.77-4.4-5.73-6.27,.01-.57,.55-1.17,1.74-1.32,1.38-.13,2.78,.11,4.03,.71l.72-3.35c-1.22-.46-2.52-.7-3.83-.7-4.04,0-6.89,2.15-6.91,5.23m17.65-4.94c-.76,0-1.45,.45-1.74,1.16l-6.14,14.65h4.29l.85-2.36h5.25l.5,2.36h3.78l-3.3-15.81h-3.49m.6,4.27l1.24,5.94h-3.39l2.15-5.94m-23.46-4.27l-3.38,15.81h4.09l3.38-15.81h-4.09m-6.05,0l-4.26,10.76-1.72-9.15c-.15-.93-.95-1.61-1.89-1.61h-6.96l-.1,.46c1.4,.28,2.75,.73,4.04,1.34,.54,.26,.91,.79,.97,1.39l3.26,12.62h4.32l6.63-15.81h-4.3"/>
    </g>
  </g>
</svg>